<svg width="356" height="285" viewBox="0 0 356 285" fill="none" xmlns="http://www.w3.org/2000/svg">
<path d="M35.6 53.4375C35.6 33.7881 51.5644 17.8125 71.2 17.8125H284.8C304.436 17.8125 320.4 33.7881 320.4 53.4375V195.938H284.8V53.4375H71.2V195.938H35.6V53.4375ZM0 224.438C0 218.537 4.78375 213.75 10.68 213.75H345.32C351.216 213.75 356 218.537 356 224.438C356 248.039 336.865 267.188 313.28 267.188H42.72C19.135 267.188 0 248.039 0 224.438ZM156.306 116.338L139.062 133.594L156.306 150.85C161.535 156.082 161.535 164.543 156.306 169.72C151.078 174.896 142.623 174.952 137.449 169.72L110.749 143.001C105.521 137.769 105.521 129.308 110.749 124.131L137.449 97.4121C142.678 92.1797 151.133 92.1797 156.306 97.4121C161.479 102.645 161.535 111.105 156.306 116.282V116.338ZM218.606 97.4121L245.306 124.131C250.535 129.363 250.535 137.824 245.306 143.001L218.606 169.72C213.378 174.952 204.922 174.952 199.749 169.72C194.576 164.487 194.521 156.026 199.749 150.85L216.993 133.594L199.749 116.338C194.521 111.105 194.521 102.645 199.749 97.4678C204.978 92.291 213.433 92.2354 218.606 97.4678V97.4121Z" fill="#141414"/>
</svg>