<svg width="360" height="345" viewBox="0 0 360 345" fill="none" xmlns="http://www.w3.org/2000/svg">
<path d="M0 50C0 22.3857 22.3858 0 50 0H310C337.614 0 360 22.3858 360 50V53.1328C360 80.747 337.614 103.133 310 103.133H50C22.3858 103.133 0 80.747 0 53.1327V50Z" fill="#FF005C"/>
<path d="M0 291C0 263.386 22.3858 241 50 241H310C337.614 241 360 263.386 360 291V294.133C360 321.747 337.614 344.133 310 344.133H50C22.3858 344.133 0 321.747 0 294.133V291Z" fill="#F7DF1E"/>
<path d="M0 170.322C0 142.707 22.3858 120.322 50 120.322H360V173.454C360 201.069 337.614 223.454 310 223.454H0V170.322Z" fill="url(#paint0_linear_503_11)"/>
<path d="M0 170.322C0 142.707 22.3858 120.322 50 120.322H360V173.454C360 201.069 337.614 223.454 310 223.454H0V170.322Z" fill="#61DAFB"/>
<defs>
<linearGradient id="paint0_linear_503_11" x1="360" y1="171.888" x2="42" y2="171.888" gradientUnits="userSpaceOnUse">
<stop stop-color="#61DAFB"/>
<stop offset="1" stop-color="#3CDCB7" stop-opacity="0"/>
</linearGradient>
</defs>
</svg>