<svg width="100" height="100" viewBox="0 0 100 100" fill="none" xmlns="http://www.w3.org/2000/svg">
<circle cx="50" cy="50" r="50" fill="#3C5476"/>
<circle cx="50" cy="50" r="50" fill="url(#paint0_angular_503_14)"/>
<path d="M22.875 32.8571C22.875 29.2129 25.8459 26.25 29.5 26.25H69.25C72.9041 26.25 75.875 29.2129 75.875 32.8571V59.2857H69.25V32.8571H29.5V59.2857H22.875V32.8571ZM16.25 64.5714C16.25 63.4771 17.1402 62.5893 18.2375 62.5893H80.5125C81.6098 62.5893 82.5 63.4771 82.5 64.5714C82.5 68.9487 78.9391 72.5 74.55 72.5H24.2C19.8109 72.5 16.25 68.9487 16.25 64.5714ZM45.3379 44.5229L42.1289 47.7232L45.3379 50.9235C46.3109 51.894 46.3109 53.4632 45.3379 54.4233C44.3648 55.3834 42.7914 55.3937 41.8287 54.4233L36.86 49.4679C35.8869 48.4975 35.8869 46.9283 36.86 45.9682L41.8287 41.0128C42.8018 40.0424 44.3752 40.0424 45.3379 41.0128C46.3006 41.9833 46.3109 43.5525 45.3379 44.5126V44.5229ZM56.9316 41.0128L61.9004 45.9682C62.8734 46.9386 62.8734 48.5078 61.9004 49.4679L56.9316 54.4233C55.9586 55.3937 54.3852 55.3937 53.4225 54.4233C52.4598 53.4528 52.4494 51.8836 53.4225 50.9235L56.6314 47.7232L53.4225 44.5229C52.4494 43.5525 52.4494 41.9833 53.4225 41.0232C54.3955 40.0631 55.9689 40.0527 56.9316 41.0232V41.0128Z" fill="white"/>
<defs>
<radialGradient id="paint0_angular_503_14" cx="0" cy="0" r="1" gradientUnits="userSpaceOnUse" gradientTransform="translate(50 50) rotate(90) scale(50)">
<stop/>
<stop offset="1" stop-opacity="0"/>
</radialGradient>
</defs>
</svg>