<?xml version="1.0" encoding="UTF-8" standalone="no"?>
<!-- Created with Inkscape (http://www.inkscape.org/) -->

<svg
   width="195.79167mm"
   height="100.23366mm"
   viewBox="0 0 195.79167 100.23366"
   version="1.1"
   id="svg5"
   xml:space="preserve"
   xmlns="http://www.w3.org/2000/svg"
   xmlns:svg="http://www.w3.org/2000/svg"><defs
     id="defs2" /><g
     id="layer1"
     transform="translate(-8.4584434,-96.98476)"><path
       style="fill:#000000;stroke-width:0.264583"
       d="m 83.333821,196.97705 c -0.364746,-0.11095 -1.043442,-0.39838 -1.508215,-0.63872 -0.464775,-0.24034 -1.246066,-0.43699 -1.736204,-0.43699 -1.129993,0 -3.408193,-0.67192 -4.984422,-1.47008 -3.649744,-1.84813 -5.542542,-6.55831 -4.307406,-10.71888 0.968912,-3.26379 2.772664,-5.92857 4.667195,-6.89509 0.573582,-0.29261 0.989451,-0.58546 0.924158,-0.65075 -0.3443,-0.3443 -6.52439,-2.22562 -7.311113,-2.22562 -1.476658,0 -3.130193,0.97515 -4.433742,2.61474 -1.623237,2.04168 -3.546419,6.02272 -3.613126,7.47926 l -0.05271,1.1508 1.5875,0.34903 c 0.873125,0.19197 2.467681,0.65672 3.543461,1.03279 3.535913,1.23607 5.627098,4.04957 3.162639,4.25503 -1.461873,0.12188 -5.995768,-1.99607 -8.083082,-3.77591 -0.752207,-0.6414 -1.53553,-0.97393 -3.120935,-1.32486 -4.781243,-1.05832 -10.701221,-3.55984 -14.116312,-5.96491 l -1.945481,-1.37011 -16.773791,0.0384 c -16.738026,0.0384 -16.7737916,0.0373 -16.7737916,-0.50314 0,-0.53979 0.053128,-0.54157 16.1395836,-0.54157 8.876771,0 16.139584,-0.0451 16.139584,-0.10024 0,-0.0551 -0.406056,-0.77456 -0.902346,-1.59873 -3.366619,-5.59082 -0.997746,-12.52412 8.504645,-24.89166 4.383376,-5.70505 9.134364,-11.07579 15.005333,-16.96274 8.990738,-9.01522 14.225506,-12.74268 21.149239,-15.05951 3.77144,-1.262 7.438081,-1.79809 11.39684,-1.66629 5.082068,0.16918 5.850968,0.91882 6.140938,5.98704 l 0.16841,2.9434 0.60046,-1.77616 c 0.33025,-0.97688 0.94756,-2.55006 1.37179,-3.49595 0.7588,-1.69182 0.76938,-1.78005 0.65075,-5.42548 -0.1434,-4.40603 0.17378,-6.01285 1.85376,-9.39118 1.4294,-2.87444 4.49407,-6.052756 7.08518,-7.347895 4.35284,-2.175724 9.6865,-2.147033 16.37233,0.08807 8.99808,3.008095 15.75364,8.433285 17.4862,14.042645 0.99844,3.23258 0.93877,8.19619 -0.13513,11.23993 -0.37624,1.06639 -0.36872,1.12093 0.20716,1.50231 1.54253,1.02157 5.03614,4.94574 6.87919,7.72702 4.94202,7.45779 10.98699,20.52978 14.43767,31.22083 2.45375,7.60234 1.86101,12.7 -1.47673,12.7 -1.14221,0 -2.08353,-0.5094 -3.25992,-1.76413 -1.45859,-1.55572 -1.79942,-2.14036 -5.21852,-8.95149 -4.28865,-8.54336 -6.20686,-11.34425 -9.82438,-14.34521 -1.85309,-1.53724 -5.70134,-3.53394 -7.73764,-4.01474 -0.6829,-0.16125 -2.1164,-0.29318 -3.18556,-0.29318 -3.78861,0 -6.71333,1.13925 -13.96134,5.43827 -7.78809,4.61935 -10.6036,5.85515 -14.80508,6.49832 -4.222,0.64632 -8.5339,-0.51997 -16.542455,-4.47444 -11.097437,-5.47969 -15.204683,-6.70552 -19.70337,-5.8806 -5.991953,1.09875 -10.159897,4.90819 -20.704557,18.92366 -4.460404,5.92857 -6.563153,8.22994 -8.258175,9.03824 -0.521872,0.24886 -0.948859,0.55189 -0.948859,0.67339 0,0.37451 3.633592,2.59505 6.180749,3.77716 2.988858,1.38709 5.854949,2.34097 9.472687,3.15267 0.658447,0.14773 0.716584,0.0846 0.889783,-0.96566 0.464373,-2.81598 2.972903,-7.3158 5.189222,-9.30846 0.738947,-0.66438 1.502231,-1.20796 1.696186,-1.20796 0.967449,0 0.457139,-0.57864 -1.268667,-1.43854 -2.572993,-1.28201 -4.385669,-2.64688 -4.588475,-3.45492 -0.321212,-1.27981 0.07472,-1.83542 2.461141,-3.45367 1.277247,-0.86611 3.811085,-3.01191 5.630757,-4.76843 4.200313,-4.05456 5.322313,-4.87611 6.659372,-4.87611 0.86402,0 1.101352,0.12963 1.531059,0.83622 1.052327,1.73041 1.351608,7.43082 0.651954,12.41772 l -0.170518,1.21539 0.786849,-0.11549 c 0.607719,-0.0892 1.009484,0.08 1.764782,0.74315 1.207651,1.06033 3.557653,4.59772 5.314161,7.99925 1.251903,2.42434 1.719792,3.02546 1.719792,2.20952 0,-0.68096 1.838891,-2.76417 3.62875,-4.11087 5.899351,-4.43871 13.348292,-6.4815 24.893042,-6.82663 4.76473,-0.14244 5.40845,-0.21437 5.70474,-0.63738 0.60848,-0.86874 1.83578,-1.07266 7.57763,-1.25906 3.1287,-0.10157 5.83745,-0.27745 6.01945,-0.39085 0.25562,-0.15926 0.29257,-1.33133 0.16238,-5.15138 -0.19783,-5.80468 0.0613,-7.65714 1.23516,-8.83103 0.96475,-0.96476 1.93284,-0.95758 3.48354,0.0258 2.4639,1.56255 7.06541,7.6852 7.29293,9.70377 0.17814,1.5805 -0.39142,2.35948 -2.41891,3.30826 -1.70812,0.79933 -5.73995,1.81247 -7.25235,1.82242 -0.68107,0.004 -1.09648,0.25044 -1.9088,1.1302 l -1.03828,1.12448 -6.02871,0.056 -6.0287,0.056 0.0471,0.87002 c 0.0259,0.47851 -0.0953,2.41784 -0.26943,4.30961 -0.17409,1.89177 -0.27926,3.6302 -0.23373,3.86317 0.0697,0.35639 0.7211,0.45245 4.10589,0.60543 2.2127,0.10001 5.21371,0.29332 6.66892,0.42959 1.45521,0.13626 8.24177,0.32738 15.08125,0.4247 16.15404,0.22988 18.29492,0.004 20.52522,-2.16946 0.70906,-0.69086 1.3056,-0.98701 2.38125,-1.18219 0.78936,-0.14322 8.60871,-0.33511 17.37634,-0.42641 15.89708,-0.16555 15.94115,-0.16452 15.94115,0.37102 0,0.53232 -0.14224,0.53823 -16.20573,0.67382 -9.15488,0.0773 -16.62672,0.24862 -17.17333,0.3938 -0.53218,0.14135 -1.39446,0.68387 -1.91619,1.2056 -1.83144,1.83143 -4.96842,2.28261 -15.90163,2.28707 -8.39466,0.003 -18.1573,-0.35935 -24.20937,-0.89959 -2.25558,-0.20134 -4.72551,-0.30296 -5.48874,-0.22581 -1.73164,0.17505 -2.17786,-0.15166 -2.20287,-1.61283 l -0.0187,-1.09208 -0.52582,1.19063 c -0.73664,1.66802 -1.94198,2.81614 -3.65651,3.48295 -1.23497,0.48029 -2.2271,0.59604 -6.23133,0.72696 l -4.7625,0.15571 -2.98239,1.8308 c -2.4804,1.52264 -3.21923,1.85044 -4.389543,1.94749 -1.288579,0.10686 -1.455709,0.055 -1.983187,-0.6156 -0.674423,-0.85739 -0.565606,-1.48208 0.455157,-2.61289 0.516832,-0.57255 0.303202,-0.4705 -0.823473,0.39339 -1.30478,1.00045 -1.521355,1.28982 -1.521355,2.03277 0,1.13812 -0.972611,3.17888 -1.611696,3.38172 -0.427619,0.13572 -0.457843,0.24746 -0.198167,0.73266 0.168521,0.31489 0.568409,0.77862 0.88864,1.03051 0.623345,0.49033 1.358731,2.63009 1.066435,3.10304 -0.30757,0.49766 -1.061686,0.31075 -2.007288,-0.49751 -1.146771,-0.98021 -1.717678,-1.00316 -2.158381,-0.0868 -0.86586,1.80044 -4.8103,2.98514 -7.358338,2.21006 z m 5.190046,-1.51943 c 1.263655,-0.65578 1.453753,-1.14378 0.445553,-1.14378 -2.526967,0 -9.794426,-2.97251 -10.264884,-4.19851 -0.08302,-0.21634 0.03373,-0.57803 0.259437,-0.80374 0.370787,-0.37079 0.579634,-0.36599 2.16462,0.0497 0.964832,0.25305 3.361039,1.23277 5.324909,2.17715 1.963867,0.94438 3.799959,1.71705 4.080203,1.71705 0.795822,0 1.533078,-0.49933 1.533078,-1.03833 0,-0.86813 -0.877054,-1.51907 -3.042708,-2.25827 -2.710715,-0.92524 -7.036565,-3.17136 -7.955923,-4.13097 -0.99672,-1.04035 -0.719109,-1.68363 0.647477,-1.50033 1.842495,0.24712 6.339523,2.60427 9.736694,5.10355 0.450567,0.33148 0.695687,0.35991 1.124479,0.13043 0.684956,-0.36658 0.711211,-0.804 0.04825,-0.804 -1.190488,0 -4.769993,-3.26418 -5.616245,-5.1215 -0.180943,-0.39713 -1.251148,-1.36823 -2.378236,-2.158 -1.127085,-0.78977 -2.499022,-1.97402 -3.048749,-2.63167 -1.167784,-1.39704 -2.314773,-1.86128 -4.020886,-1.62744 -1.625711,0.22283 -2.777371,1.04792 -4.004871,2.86921 -3.820674,5.66891 -2.265971,12.01962 3.445264,14.07335 0.733091,0.26361 1.39369,0.4185 1.467995,0.3442 0.07431,-0.0743 -0.526809,-0.5138 -1.335807,-0.97667 -1.503746,-0.86035 -1.759765,-1.29195 -1.094086,-1.84442 0.97115,-0.80598 4.838488,1.13299 5.653111,2.83431 0.306337,0.63978 0.75129,1.0568 1.378403,1.29187 1.287809,0.48273 4.206388,0.29368 5.452917,-0.35321 z m 4.914339,-1.99486 c -0.189855,-0.18985 -0.313089,-0.20547 -0.313089,-0.0397 0,0.15037 0.07937,0.35278 0.176389,0.44979 0.09701,0.097 0.237903,0.11487 0.31309,0.0397 0.07519,-0.0752 -0.0042,-0.27759 -0.17639,-0.4498 z m -7.337777,-0.97966 c -0.340966,-0.32995 -4.764588,-2.14068 -5.197314,-2.12742 -0.490344,0.015 0.924886,0.75442 3.093876,1.61641 1.966619,0.78155 2.52258,0.91662 2.103438,0.51101 z m -17.149498,-3.15746 c -0.927971,-1.02539 -5.718623,-3.0426 -6.165223,-2.596 -0.364371,0.36437 4.859038,3.05289 5.972603,3.07414 0.602867,0.0115 0.612992,-0.0136 0.19262,-0.47814 z m 19.147102,-0.96251 c 0,-0.0714 -1.190625,-0.72736 -2.645833,-1.45762 -1.455209,-0.73026 -2.645834,-1.23441 -2.645834,-1.12033 0,0.11408 1.101328,0.76303 2.447396,1.44211 2.417286,1.21951 2.844271,1.39002 2.844271,1.13584 z m 5.55625,-0.98137 c 0,-0.42742 -0.07824,-0.50385 -0.294447,-0.28764 -0.161943,0.16194 -0.21445,0.42388 -0.116676,0.58208 0.273683,0.44283 0.411123,0.3444 0.411123,-0.29444 z m 6.691267,-1.04163 c 0.61267,-0.31095 1.59019,-0.88997 2.17228,-1.28671 2.78586,-1.89878 3.03758,-1.96344 8.22145,-2.11196 4.67775,-0.13401 4.81599,-0.15446 6.34938,-0.93899 1.20897,-0.61855 1.71897,-1.07246 2.2296,-1.98438 0.59656,-1.06539 0.66207,-1.47552 0.66207,-4.14516 0,-2.07163 -0.10303,-3.06598 -0.34254,-3.30587 -1.17688,-1.17875 -12.73796,0.13098 -20.294965,2.29918 -4.23531,1.21516 -7.525853,3.06798 -8.091676,4.5562 -0.232566,0.61169 0.298919,2.1914 0.737286,2.1914 0.09495,0 1.089684,-0.89241 2.210509,-1.98314 1.120825,-1.09072 2.558124,-2.2192 3.193997,-2.50773 2.048978,-0.92972 4.233199,-0.56476 3.774469,0.63066 -0.21096,0.54977 -1.07408,0.99966 -3.863575,2.01386 -1.237822,0.45005 -2.655674,1.19116 -3.252677,1.70017 -0.927526,0.79082 -1.016799,0.9619 -0.722286,1.38416 0.184827,0.265 0.518279,0.87938 0.741005,1.36528 l 0.404958,0.88347 0.846495,-0.6781 c 1.593898,-1.27683 5.42382,-3.85995 6.10966,-4.12071 0.83983,-0.3193 1.48371,-0.10538 1.48371,0.49294 0,0.51665 -1.40381,1.90211 -3.307292,3.26407 -1.690928,1.20987 -2.616734,2.20113 -2.393354,2.56257 0.290353,0.4698 1.94447,0.32126 3.131496,-0.28121 z m -6.961944,-1.17044 c -0.371496,-0.97711 -0.890865,-1.70377 -1.217747,-1.70377 -0.166539,0 -0.505764,0.30977 -0.753832,0.68837 -0.438346,0.669 -0.430898,0.70937 0.264829,1.43555 0.608955,0.63561 0.807175,0.7056 1.327301,0.46861 0.502766,-0.22907 0.570206,-0.38703 0.379449,-0.88876 z m -3.43349,0.313 c 0,-0.0549 -0.208359,-0.2633 -0.46302,-0.46302 -0.419645,-0.3291 -0.429004,-0.31974 -0.0999,0.0999 0.345643,0.44073 0.562916,0.58089 0.562916,0.36312 z m 0.811144,-2.29066 c 0.65342,-0.3497 0.643914,-0.62714 -0.05383,-1.57089 -0.452657,-0.61225 -0.537937,-1.0105 -0.427053,-1.99425 l 0.138552,-1.22922 -0.787191,0.74819 c -1.581746,1.50338 -1.98034,3.15021 -0.938387,3.87704 0.704495,0.49143 1.364787,0.54543 2.067914,0.16913 z m -6.628453,-5.19412 c -2.261039,-4.23167 -4.521168,-7.23199 -5.447834,-7.23199 -0.662117,0 -0.408064,0.89922 0.814102,2.88152 0.654843,1.06212 1.191892,2.12821 1.193442,2.36908 0.0016,0.24087 0.418267,0.84162 0.926042,1.335 0.507773,0.49338 0.923224,0.99824 0.923224,1.12191 0,0.25219 2.389706,2.0653 2.735562,2.07552 0.122113,0.004 -0.392931,-1.14436 -1.144538,-2.55104 z m 14.369135,0.28377 c 1.324549,-0.45132 1.742588,-1.00902 0.486257,-0.6487 -0.91865,0.26346 -2.39947,1.04521 -2.007611,1.05985 0.155977,0.006 0.840586,-0.17919 1.521354,-0.41115 z M 44.181237,176.1878 c 1.42023,-0.73444 3.688019,-3.32424 8.37697,-9.56646 10.279301,-13.68444 14.568924,-17.41708 21.052399,-18.31885 4.503198,-0.62634 8.213722,0.41165 17.413862,4.87137 9.960832,4.82847 13.253342,5.89228 17.343322,5.60365 3.94619,-0.27849 7.56935,-1.75803 14.40679,-5.88311 7.3763,-4.45018 10.85369,-5.88935 14.80054,-6.1254 5.13143,-0.30689 10.0163,1.94148 14.55572,6.69959 2.76317,2.89629 4.2922,5.33721 7.93488,12.66713 3.31432,6.66917 4.85454,8.99991 6.44666,9.75542 1.10663,0.52513 1.73544,0.31637 2.48201,-0.82401 0.7393,-1.12927 0.58679,-5.37399 -0.2997,-8.34131 -2.71396,-9.08438 -9.34457,-24.04632 -13.84561,-31.24252 -2.24257,-3.58541 -4.84917,-6.83627 -6.67453,-8.32426 l -1.40049,-1.14165 -0.87912,1.30542 c -1.46979,2.18252 -4.39058,4.28478 -5.95308,4.28478 -3.06745,0 -1.76877,-4.91877 1.74819,-6.62131 0.96183,-0.46561 1.54143,-0.56086 2.89023,-0.47498 l 1.68714,0.10743 0.44814,-1.59718 c 0.66906,-2.38452 0.79879,-6.49511 0.27509,-8.71691 -0.86207,-3.65739 -3.1137,-6.71922 -6.9917,-9.5075 -5.58674,-4.01687 -13.33729,-6.797827 -18.91742,-6.787722 -4.28086,0.0078 -7.4741,1.278476 -10.30437,4.100532 -3.68514,3.67445 -5.45597,8.4313 -5.03537,13.52618 l 0.15585,1.88791 0.9233,-0.54476 c 0.96588,-0.56988 0.92928,-0.57242 3.81678,0.26457 0.28871,0.0837 0.86587,-0.30144 1.63005,-1.08772 0.86934,-0.89449 1.3864,-1.21729 1.94984,-1.21729 0.99267,0 1.27089,0.24347 3.17457,2.77813 4.47287,5.95541 7.9175,7.86999 14.98158,8.327 4.22246,0.27318 4.27848,0.3281 4.26649,4.18269 -0.008,2.448 -0.0948,3.00669 -0.63692,4.08233 -0.70186,1.39251 -5.56355,6.87932 -7.62245,8.60255 -1.95361,1.63511 -2.76703,2.0398 -6.28389,3.1264 -1.76296,0.54471 -4.5282,1.67739 -6.21771,2.54689 -4.74866,2.44387 -6.66092,2.60249 -9.20003,0.76317 -1.47579,-1.06906 -2.37132,-2.71076 -2.83626,-5.19954 -0.80626,-4.31574 -1.50291,-7.99743 -2.02254,-10.68879 -0.34942,-1.80978 -0.60357,-4.58897 -0.72914,-7.97338 -0.2661,-7.17195 -0.4312,-7.37245 -6.070954,-7.37245 -10.686934,0 -18.933377,4.31148 -30.602532,15.99987 -9.932381,9.94877 -19.317512,21.75892 -22.713474,28.58242 -1.580168,3.17504 -2.289651,5.59192 -2.289651,7.79982 0,2.1508 0.471006,3.59587 1.731907,5.31356 1.022982,1.39358 1.061881,1.39843 3.034631,0.37829 z m 35.185546,-0.56397 c 0,-0.093 -0.357188,-0.74968 -0.79375,-1.45918 -0.436563,-0.70951 -0.79375,-1.40728 -0.79375,-1.55062 0,-0.62094 -0.514363,-0.18111 -0.799865,0.68396 -0.171452,0.51951 -0.478342,1.0085 -0.681976,1.08664 -0.708028,0.2717 -0.361188,0.55996 1.151112,0.95672 1.847823,0.48479 1.918229,0.49516 1.918229,0.28248 z m 42.298417,-2.60895 c 0.0152,-0.7276 -0.0485,-1.60758 -0.14159,-1.9555 l -0.16929,-0.63259 -4.25887,0.18601 c -8.67851,0.37905 -15.17649,1.51311 -19.831745,3.46114 -1.488837,0.62301 -1.026467,0.74473 0.646645,0.17023 3.96337,-1.36091 11.97006,-2.77744 17.57206,-3.10881 2.35232,-0.13915 3.1025,-0.0914 3.91213,0.24885 1.15657,0.48609 1.75833,1.62059 1.80771,3.40811 0.0293,1.05963 0.0444,1.08159 0.23328,0.33923 0.11109,-0.43656 0.21444,-1.38906 0.22967,-2.11667 z m -45.719133,0.097 c 0.558607,-1.04377 1.040559,-4.56502 1.208323,-8.82829 0.181785,-4.61956 -0.10037,-6.8926 -0.951164,-7.66256 -0.459097,-0.41548 -0.549815,-0.41606 -1.33777,-0.009 -0.4649,0.24041 -2.470023,1.98072 -4.455827,3.86735 -1.985807,1.88664 -4.713007,4.2121 -6.060451,5.16769 -1.347441,0.9556 -2.519902,1.85072 -2.605466,1.98916 -0.317381,0.51354 2.119752,2.38232 4.78069,3.66581 1.865996,0.90005 3.51839,1.47603 5.208083,1.81539 3.367328,0.67632 3.848806,0.67563 4.213582,-0.006 z m 57.210213,-3.38012 c 1.15952,-0.19071 2.03945,-0.65022 1.75536,-0.91668 -0.22045,-0.20679 -11.56101,0.29322 -11.92158,0.52562 -0.32196,0.20753 1.27389,0.32181 7.83818,0.56128 0.58209,0.0213 1.6297,-0.0554 2.32804,-0.17022 z m 7.72613,-2.94243 c 1.16417,-0.26741 2.54878,-0.6683 3.07691,-0.89087 1.16461,-0.49077 2.61163,-1.66991 2.61163,-2.12815 0,-1.17457 -3.53679,-6.08051 -6.08306,-8.4379 -1.87609,-1.73694 -2.62204,-1.86712 -3.54806,-0.61919 -0.52327,0.70516 -0.55649,1.08712 -0.57522,6.61458 -0.0109,3.22642 0.026,5.95576 0.0821,6.06522 0.12522,0.24434 1.64343,0.0377 4.43568,-0.60369 z m -25.45693,-19.10775 c 1.92308,-0.95716 4.86859,-2.1631 6.54557,-2.67988 1.67697,-0.51678 3.59622,-1.30204 4.265,-1.74502 1.61029,-1.06661 7.07347,-6.71226 8.33739,-8.61586 0.95601,-1.43987 1.00573,-1.62335 1.1042,-4.07484 0.13052,-3.24975 -0.024,-3.45635 -2.58468,-3.45635 -0.98919,0 -2.83293,-0.18038 -4.09719,-0.40085 -5.29054,-0.92259 -8.64795,-3.21496 -12.64614,-8.63452 -0.82121,-1.11315 -1.63157,-2.10948 -1.8008,-2.21407 -0.18171,-0.11231 -0.83097,0.32525 -1.58577,1.06871 -1.4225,1.40111 -1.94728,1.51827 -4.05474,0.90528 l -1.28241,-0.37302 -0.77433,0.86663 c -0.73265,0.81997 -0.76526,0.95524 -0.6057,2.51255 0.42283,4.12712 -1.36325,9.17971 -3.24501,9.17971 -0.80883,0 -0.80238,0.12556 0.29636,5.76862 0.50144,2.57533 1.09797,5.79089 1.32564,7.14569 0.4548,2.70646 1.02644,4.05299 2.1702,5.11207 2.28071,2.11184 3.78399,2.0483 8.63241,-0.36485 z m 26.39732,-17.87891 c 1.3225,-0.83934 3.68982,-3.34939 3.68982,-3.91228 0,-0.50291 -2.42755,-0.49472 -3.40646,0.0115 -1.6482,0.85231 -3.35418,3.50427 -2.81524,4.3763 0.298,0.48216 1.32761,0.2888 2.53188,-0.47551 z m -37.87821,-1.72097 c 0.71429,-1.15574 1.39829,-4.15935 1.29814,-5.70038 l -0.0796,-1.22481 -0.47962,1.05833 c -1.28042,2.82532 -2.18869,6.74688 -1.56265,6.74688 0.15392,0 0.5246,-0.39601 0.82374,-0.88002 z"
       id="path185" /></g></svg>
