<svg width="167" height="165" viewBox="0 0 167 165" fill="none" xmlns="http://www.w3.org/2000/svg">
<path fill-rule="evenodd" clip-rule="evenodd" d="M50.1 0H66.8H83.5H100.2H116.9V16.4733H133.6V32.9466H116.9H100.2H83.5H66.8H50.1H33.4V16.4733L50.1 16.4733V0ZM16.7 32.9466H33.4H50.1H66.8H83.5H100.2H116.9H133.6H150.3V49.4199H167V65.8932H150.3H133.6V82.3665H116.9V65.8932H100.2V82.3665H83.5V65.8932H66.8V82.3665H50.1V65.8932H33.4V82.3665H16.7V65.8932V49.4199V32.9466ZM33.4 82.3665H50.1L50.1 98.8398H66.8V82.3665H83.5V98.8398H100.2V82.3665H116.9L116.9 98.8398H133.6V82.3665H150.3V98.8398H167V115.313H150.3V131.786H133.6V148.26H116.9V164.733H100.2H83.5H66.8H50.1L50.1 148.26H33.4L33.4 131.786H16.7V115.313V98.8398H33.4V82.3665ZM0 49.4199H16.7V65.8932H0V49.4199ZM16.7 98.8398H0V115.313H16.7V98.8398Z" fill="#9792f0"/>
</svg>