<svg width="327" height="110" viewBox="0 0 327 110" fill="none" xmlns="http://www.w3.org/2000/svg">
<path d="M30.16 33.024C29.68 33.44 29.008 33.856 28.144 34.272C27.28 34.656 26.32 35.008 25.264 35.328C24.24 35.648 23.168 35.904 22.048 36.096C20.96 36.288 19.936 36.384 18.976 36.384C16.192 36.384 13.68 35.952 11.44 35.088C9.232 34.224 7.328 33.024 5.728 31.488C4.16 29.952 2.944 28.144 2.08 26.064C1.248 23.984 0.832 21.728 0.832 19.296C0.832 16.416 1.296 13.84 2.224 11.568C3.184 9.264 4.48 7.328 6.112 5.76C7.776 4.16 9.68 2.96 11.824 2.16C13.968 1.328 16.24 0.912 18.64 0.912C20.656 0.912 22.528 1.152 24.256 1.632C25.984 2.112 27.504 2.72 28.816 3.456L27.232 7.728C26.592 7.344 25.792 6.992 24.832 6.672C23.904 6.352 22.944 6.096 21.952 5.904C20.96 5.68 20.032 5.568 19.168 5.568C17.12 5.568 15.264 5.888 13.6 6.528C11.936 7.136 10.512 8.032 9.328 9.216C8.144 10.368 7.232 11.776 6.592 13.44C5.952 15.072 5.632 16.912 5.632 18.96C5.632 20.848 5.952 22.576 6.592 24.144C7.232 25.712 8.144 27.072 9.328 28.224C10.512 29.344 11.92 30.224 13.552 30.864C15.216 31.472 17.04 31.776 19.024 31.776C20.208 31.776 21.376 31.664 22.528 31.44C23.68 31.184 24.672 30.832 25.504 30.384V23.472H18.592V19.008H30.16V33.024ZM37.9349 16.128H42.3989V36H37.9349V16.128ZM37.5989 8.928C37.5989 8.224 37.8709 7.632 38.4149 7.152C38.9909 6.672 39.6149 6.432 40.2869 6.432C40.9589 6.432 41.5509 6.672 42.0629 7.152C42.6069 7.632 42.8789 8.224 42.8789 8.928C42.8789 9.664 42.6069 10.272 42.0629 10.752C41.5509 11.2 40.9589 11.424 40.2869 11.424C39.6149 11.424 38.9909 11.184 38.4149 10.704C37.8709 10.224 37.5989 9.632 37.5989 8.928ZM56.4104 36.768C54.6184 36.768 53.1304 36.224 51.9464 35.136C50.7944 34.016 50.1864 32.576 50.1224 30.816V16.128H54.5864V29.232C54.6504 30.32 54.9544 31.2 55.4984 31.872C56.0744 32.544 56.9704 32.896 58.1864 32.928C59.3064 32.928 60.2984 32.608 61.1624 31.968C62.0584 31.296 62.7784 30.4 63.3224 29.28C63.8664 28.128 64.1384 26.832 64.1384 25.392V16.128H68.6024V36H64.5224L64.1384 31.104L64.3784 31.968C63.9944 32.896 63.4024 33.728 62.6024 34.464C61.8344 35.168 60.9224 35.728 59.8664 36.144C58.8104 36.56 57.6584 36.768 56.4104 36.768ZM81.8935 36.384C80.4855 36.384 79.1095 36.144 77.7655 35.664C76.4535 35.152 75.3655 34.4 74.5015 33.408L76.3735 30.816C77.2055 31.616 78.0535 32.224 78.9175 32.64C79.8135 33.024 80.6935 33.216 81.5575 33.216C82.1975 33.216 82.7895 33.136 83.3335 32.976C83.8775 32.816 84.3095 32.56 84.6295 32.208C84.9815 31.824 85.1575 31.312 85.1575 30.672C85.1575 29.968 84.9175 29.408 84.4375 28.992C83.9895 28.576 83.3975 28.24 82.6615 27.984C81.9575 27.728 81.2055 27.488 80.4055 27.264C78.7735 26.72 77.5255 25.968 76.6615 25.008C75.7975 24.048 75.3655 22.88 75.3655 21.504C75.3655 20.448 75.6215 19.472 76.1335 18.576C76.6775 17.648 77.4615 16.896 78.4855 16.32C79.5415 15.744 80.8375 15.456 82.3735 15.456C83.7495 15.456 84.9815 15.632 86.0695 15.984C87.1575 16.304 88.1815 16.848 89.1415 17.616L87.3655 20.4C86.7895 19.792 86.1015 19.344 85.3015 19.056C84.5015 18.768 83.7815 18.608 83.1415 18.576C82.5975 18.544 82.0695 18.624 81.5575 18.816C81.0775 19.008 80.6775 19.28 80.3575 19.632C80.0375 19.984 79.8775 20.4 79.8775 20.88C79.8775 21.552 80.1015 22.096 80.5495 22.512C80.9975 22.928 81.5735 23.264 82.2775 23.52C83.0135 23.744 83.7335 23.984 84.4375 24.24C85.4295 24.528 86.3095 24.912 87.0775 25.392C87.8455 25.872 88.4535 26.464 88.9015 27.168C89.3815 27.872 89.6215 28.752 89.6215 29.808C89.6215 30.992 89.3335 32.096 88.7575 33.12C88.2135 34.112 87.3655 34.912 86.2135 35.52C85.0935 36.096 83.6535 36.384 81.8935 36.384ZM105.088 36.48C102.816 36.48 100.864 36.032 99.2324 35.136C97.6004 34.208 96.3364 32.96 95.4404 31.392C94.5764 29.792 94.1444 27.968 94.1444 25.92C94.1444 23.968 94.6404 22.192 95.6324 20.592C96.6244 18.992 97.9524 17.712 99.6164 16.752C101.28 15.792 103.136 15.312 105.184 15.312C107.808 15.312 109.984 16.08 111.712 17.616C113.44 19.152 114.608 21.264 115.216 23.952L98.8484 29.712L97.7924 27.072L111.232 22.176L110.272 22.8C109.888 21.744 109.248 20.832 108.352 20.064C107.456 19.264 106.288 18.864 104.848 18.864C103.632 18.864 102.544 19.168 101.584 19.776C100.624 20.352 99.8724 21.152 99.3284 22.176C98.7844 23.2 98.5124 24.368 98.5124 25.68C98.5124 27.056 98.8004 28.272 99.3764 29.328C99.9524 30.352 100.736 31.168 101.728 31.776C102.752 32.352 103.904 32.64 105.184 32.64C106.048 32.64 106.88 32.48 107.68 32.16C108.512 31.84 109.28 31.424 109.984 30.912L112.048 34.224C111.056 34.896 109.936 35.44 108.688 35.856C107.472 36.272 106.272 36.48 105.088 36.48ZM132.522 36.48C131.018 36.48 129.562 36.128 128.154 35.424C126.778 34.72 125.706 33.776 124.938 32.592L125.226 31.2V45.552H120.81V15.84H124.65L125.274 20.928L124.794 19.536C125.754 18.32 126.97 17.312 128.442 16.512C129.914 15.712 131.562 15.312 133.386 15.312C135.242 15.312 136.906 15.76 138.378 16.656C139.882 17.552 141.066 18.8 141.93 20.4C142.794 22 143.226 23.872 143.226 26.016C143.226 28.16 142.762 30.016 141.834 31.584C140.906 33.152 139.626 34.368 137.994 35.232C136.394 36.064 134.57 36.48 132.522 36.48ZM131.658 32.928C132.938 32.928 134.106 32.64 135.162 32.064C136.25 31.456 137.114 30.64 137.754 29.616C138.394 28.56 138.714 27.376 138.714 26.064C138.714 24.72 138.41 23.536 137.802 22.512C137.194 21.456 136.378 20.624 135.354 20.016C134.362 19.408 133.242 19.104 131.994 19.104C130.842 19.104 129.802 19.328 128.874 19.776C127.946 20.224 127.178 20.848 126.57 21.648C125.962 22.416 125.53 23.312 125.274 24.336V27.648C125.434 28.672 125.818 29.584 126.426 30.384C127.034 31.184 127.786 31.808 128.682 32.256C129.61 32.704 130.602 32.928 131.658 32.928ZM160.975 36.48C159.471 36.48 158.015 36.128 156.607 35.424C155.231 34.72 154.159 33.776 153.391 32.592L153.679 31.2V45.552H149.263V15.84H153.103L153.727 20.928L153.247 19.536C154.207 18.32 155.423 17.312 156.895 16.512C158.367 15.712 160.015 15.312 161.839 15.312C163.695 15.312 165.359 15.76 166.831 16.656C168.335 17.552 169.519 18.8 170.383 20.4C171.247 22 171.679 23.872 171.679 26.016C171.679 28.16 171.215 30.016 170.287 31.584C169.359 33.152 168.079 34.368 166.447 35.232C164.847 36.064 163.023 36.48 160.975 36.48ZM160.111 32.928C161.391 32.928 162.559 32.64 163.615 32.064C164.703 31.456 165.567 30.64 166.207 29.616C166.847 28.56 167.167 27.376 167.167 26.064C167.167 24.72 166.863 23.536 166.255 22.512C165.647 21.456 164.831 20.624 163.807 20.016C162.815 19.408 161.695 19.104 160.447 19.104C159.295 19.104 158.255 19.328 157.327 19.776C156.399 20.224 155.631 20.848 155.023 21.648C154.415 22.416 153.983 23.312 153.727 24.336V27.648C153.887 28.672 154.271 29.584 154.879 30.384C155.487 31.184 156.239 31.808 157.135 32.256C158.063 32.704 159.055 32.928 160.111 32.928ZM186.932 36.48C184.66 36.48 182.708 36.032 181.076 35.136C179.444 34.208 178.18 32.96 177.284 31.392C176.42 29.792 175.988 27.968 175.988 25.92C175.988 23.968 176.484 22.192 177.476 20.592C178.468 18.992 179.796 17.712 181.46 16.752C183.124 15.792 184.98 15.312 187.028 15.312C189.652 15.312 191.828 16.08 193.556 17.616C195.284 19.152 196.452 21.264 197.06 23.952L180.692 29.712L179.636 27.072L193.076 22.176L192.116 22.8C191.732 21.744 191.092 20.832 190.196 20.064C189.3 19.264 188.132 18.864 186.692 18.864C185.476 18.864 184.388 19.168 183.428 19.776C182.468 20.352 181.716 21.152 181.172 22.176C180.628 23.2 180.356 24.368 180.356 25.68C180.356 27.056 180.644 28.272 181.22 29.328C181.796 30.352 182.58 31.168 183.572 31.776C184.596 32.352 185.748 32.64 187.028 32.64C187.892 32.64 188.724 32.48 189.524 32.16C190.356 31.84 191.124 31.424 191.828 30.912L193.892 34.224C192.9 34.896 191.78 35.44 190.532 35.856C189.316 36.272 188.116 36.48 186.932 36.48ZM244.433 33.408C243.857 33.792 243.073 34.224 242.081 34.704C241.089 35.184 239.921 35.584 238.577 35.904C237.265 36.224 235.825 36.384 234.257 36.384C231.569 36.352 229.137 35.872 226.961 34.944C224.817 34.016 222.993 32.752 221.489 31.152C219.985 29.552 218.817 27.712 217.985 25.632C217.185 23.52 216.785 21.28 216.785 18.912C216.785 16.32 217.201 13.936 218.033 11.76C218.897 9.552 220.097 7.648 221.633 6.048C223.169 4.416 224.977 3.152 227.057 2.256C229.169 1.36 231.473 0.912 233.969 0.912C236.049 0.912 237.937 1.2 239.633 1.776C241.329 2.32 242.785 2.976 244.001 3.744L242.129 8.064C241.169 7.424 240.001 6.816 238.625 6.24C237.281 5.664 235.777 5.376 234.113 5.376C232.417 5.376 230.817 5.712 229.313 6.384C227.809 7.056 226.481 8 225.329 9.216C224.177 10.432 223.265 11.856 222.593 13.488C221.953 15.088 221.633 16.816 221.633 18.672C221.633 20.56 221.921 22.32 222.497 23.952C223.105 25.552 223.953 26.944 225.041 28.128C226.161 29.312 227.505 30.24 229.073 30.912C230.641 31.584 232.401 31.92 234.353 31.92C236.113 31.92 237.681 31.648 239.057 31.104C240.433 30.56 241.569 29.952 242.465 29.28L244.433 33.408ZM249.441 25.872C249.441 23.888 249.905 22.096 250.833 20.496C251.793 18.896 253.105 17.632 254.769 16.704C256.433 15.776 258.321 15.312 260.433 15.312C262.609 15.312 264.513 15.776 266.145 16.704C267.777 17.632 269.041 18.896 269.937 20.496C270.833 22.096 271.281 23.888 271.281 25.872C271.281 27.856 270.833 29.664 269.937 31.296C269.041 32.896 267.761 34.16 266.097 35.088C264.465 36.016 262.561 36.48 260.385 36.48C258.273 36.48 256.385 36.048 254.721 35.184C253.089 34.288 251.793 33.056 250.833 31.488C249.905 29.888 249.441 28.016 249.441 25.872ZM253.905 25.92C253.905 27.2 254.193 28.368 254.769 29.424C255.345 30.448 256.113 31.264 257.073 31.872C258.065 32.48 259.153 32.784 260.337 32.784C261.585 32.784 262.689 32.48 263.649 31.872C264.641 31.264 265.409 30.448 265.953 29.424C266.497 28.368 266.769 27.2 266.769 25.92C266.769 24.64 266.497 23.488 265.953 22.464C265.409 21.408 264.641 20.576 263.649 19.968C262.689 19.328 261.585 19.008 260.337 19.008C259.121 19.008 258.017 19.328 257.025 19.968C256.065 20.608 255.297 21.456 254.721 22.512C254.177 23.536 253.905 24.672 253.905 25.92ZM281.31 16.128L281.694 20.976L281.502 20.208C282.142 18.736 283.182 17.568 284.622 16.704C286.062 15.808 287.726 15.36 289.614 15.36C291.502 15.36 293.038 15.92 294.222 17.04C295.438 18.128 296.062 19.552 296.094 21.312V36H291.582V22.896C291.55 21.808 291.23 20.928 290.622 20.256C290.046 19.552 289.134 19.2 287.886 19.2C286.734 19.2 285.694 19.52 284.766 20.16C283.838 20.8 283.102 21.68 282.558 22.8C282.046 23.92 281.79 25.216 281.79 26.688V36H277.326V16.128H281.31ZM305.777 7.392H310.241V16.224H315.713V19.728H310.241V36H305.777V19.728H302.129V16.224H305.777V7.392ZM321.107 16.128H325.571V36H321.107V16.128ZM320.771 8.928C320.771 8.224 321.043 7.632 321.587 7.152C322.163 6.672 322.787 6.432 323.459 6.432C324.131 6.432 324.723 6.672 325.235 7.152C325.779 7.632 326.051 8.224 326.051 8.928C326.051 9.664 325.779 10.272 325.235 10.752C324.723 11.2 324.131 11.424 323.459 11.424C322.787 11.424 322.163 11.184 321.587 10.704C321.043 10.224 320.771 9.632 320.771 8.928Z" fill="white"/>
<path d="M51.312 79.992H54.896L61.168 97.656L60.624 97.432L65.2 85.592L66.64 89.784L60.528 104.056L51.312 79.992ZM62.416 79.992H65.52L72.304 97.4L71.664 97.272L77.648 79.992H80.944L71.856 104.024L62.416 79.992ZM88.0173 103.32C86.5026 103.32 85.2013 103.021 84.1133 102.424C83.0253 101.805 82.1826 100.973 81.5853 99.928C81.0093 98.8613 80.7213 97.6453 80.7213 96.28C80.7213 94.9787 81.0519 93.7947 81.7133 92.728C82.3746 91.6613 83.2599 90.808 84.3693 90.168C85.4786 89.528 86.7159 89.208 88.0813 89.208C89.8306 89.208 91.2813 89.72 92.4333 90.744C93.5853 91.768 94.3639 93.176 94.7693 94.968L83.8573 98.808L83.1533 97.048L92.1133 93.784L91.4733 94.2C91.2173 93.496 90.7906 92.888 90.1933 92.376C89.5959 91.8427 88.8173 91.576 87.8573 91.576C87.0466 91.576 86.3213 91.7787 85.6813 92.184C85.0413 92.568 84.5399 93.1013 84.1773 93.784C83.8146 94.4667 83.6333 95.2453 83.6333 96.12C83.6333 97.0373 83.8253 97.848 84.2093 98.552C84.5933 99.2347 85.1159 99.7787 85.7773 100.184C86.4599 100.568 87.2279 100.76 88.0813 100.76C88.6573 100.76 89.2119 100.653 89.7453 100.44C90.2999 100.227 90.8119 99.9493 91.2813 99.608L92.6573 101.816C91.9959 102.264 91.2493 102.627 90.4173 102.904C89.6066 103.181 88.8066 103.32 88.0173 103.32ZM106.562 103.32C105.346 103.32 104.269 103.053 103.33 102.52C102.413 101.987 101.677 101.315 101.122 100.504L101.474 99.576V103H98.4983V78.232H101.442V92.792L101.346 91.672C101.88 90.9467 102.637 90.36 103.618 89.912C104.621 89.4427 105.73 89.208 106.946 89.208C108.141 89.208 109.229 89.496 110.21 90.072C111.192 90.648 111.97 91.4587 112.546 92.504C113.144 93.528 113.442 94.7547 113.442 96.184C113.442 97.6773 113.122 98.9573 112.482 100.024C111.864 101.091 111.032 101.912 109.986 102.488C108.941 103.043 107.8 103.32 106.562 103.32ZM105.954 100.792C106.808 100.792 107.576 100.589 108.258 100.184C108.941 99.7787 109.474 99.2347 109.858 98.552C110.242 97.848 110.434 97.048 110.434 96.152C110.434 95.2987 110.232 94.5307 109.826 93.848C109.442 93.144 108.909 92.5893 108.226 92.184C107.565 91.7787 106.808 91.576 105.954 91.576C105.229 91.576 104.557 91.7147 103.938 91.992C103.32 92.2693 102.797 92.6533 102.37 93.144C101.944 93.6133 101.645 94.168 101.474 94.808V97.464C101.645 98.104 101.933 98.68 102.338 99.192C102.744 99.6827 103.256 100.077 103.874 100.376C104.493 100.653 105.186 100.792 105.954 100.792ZM128.328 103V79.864H134.632C136.915 79.864 138.856 80.216 140.456 80.92C142.077 81.624 143.379 82.552 144.36 83.704C145.341 84.856 146.056 86.136 146.504 87.544C146.973 88.9307 147.208 90.3173 147.208 91.704C147.208 93.4533 146.899 95.0213 146.28 96.408C145.683 97.7947 144.851 98.9787 143.784 99.96C142.717 100.941 141.491 101.699 140.104 102.232C138.739 102.744 137.288 103 135.752 103H128.328ZM131.432 100.024H135.144C136.424 100.024 137.597 99.832 138.664 99.448C139.752 99.064 140.691 98.5093 141.48 97.784C142.291 97.0587 142.92 96.1733 143.368 95.128C143.816 94.0613 144.04 92.856 144.04 91.512C144.04 90.0827 143.805 88.8347 143.336 87.768C142.867 86.68 142.227 85.7733 141.416 85.048C140.605 84.3227 139.688 83.7787 138.664 83.416C137.64 83.032 136.563 82.84 135.432 82.84H131.432V100.024ZM157.83 103.32C156.315 103.32 155.014 103.021 153.926 102.424C152.838 101.805 151.995 100.973 151.398 99.928C150.822 98.8613 150.534 97.6453 150.534 96.28C150.534 94.9787 150.864 93.7947 151.526 92.728C152.187 91.6613 153.072 90.808 154.182 90.168C155.291 89.528 156.528 89.208 157.894 89.208C159.643 89.208 161.094 89.72 162.246 90.744C163.398 91.768 164.176 93.176 164.582 94.968L153.67 98.808L152.966 97.048L161.926 93.784L161.286 94.2C161.03 93.496 160.603 92.888 160.006 92.376C159.408 91.8427 158.63 91.576 157.67 91.576C156.859 91.576 156.134 91.7787 155.494 92.184C154.854 92.568 154.352 93.1013 153.99 93.784C153.627 94.4667 153.446 95.2453 153.446 96.12C153.446 97.0373 153.638 97.848 154.022 98.552C154.406 99.2347 154.928 99.7787 155.59 100.184C156.272 100.568 157.04 100.76 157.894 100.76C158.47 100.76 159.024 100.653 159.558 100.44C160.112 100.227 160.624 99.9493 161.094 99.608L162.47 101.816C161.808 102.264 161.062 102.627 160.23 102.904C159.419 103.181 158.619 103.32 157.83 103.32ZM173.218 103.384L165.858 89.752H169.378L174.37 100.28L172.546 100.216L177.122 89.752H180.45L173.378 103.384H173.218ZM189.486 103.32C187.971 103.32 186.67 103.021 185.582 102.424C184.494 101.805 183.651 100.973 183.054 99.928C182.478 98.8613 182.19 97.6453 182.19 96.28C182.19 94.9787 182.521 93.7947 183.182 92.728C183.843 91.6613 184.729 90.808 185.838 90.168C186.947 89.528 188.185 89.208 189.55 89.208C191.299 89.208 192.75 89.72 193.902 90.744C195.054 91.768 195.833 93.176 196.238 94.968L185.326 98.808L184.622 97.048L193.582 93.784L192.942 94.2C192.686 93.496 192.259 92.888 191.662 92.376C191.065 91.8427 190.286 91.576 189.326 91.576C188.515 91.576 187.79 91.7787 187.15 92.184C186.51 92.568 186.009 93.1013 185.646 93.784C185.283 94.4667 185.102 95.2453 185.102 96.12C185.102 97.0373 185.294 97.848 185.678 98.552C186.062 99.2347 186.585 99.7787 187.246 100.184C187.929 100.568 188.697 100.76 189.55 100.76C190.126 100.76 190.681 100.653 191.214 100.44C191.769 100.227 192.281 99.9493 192.75 99.608L194.126 101.816C193.465 102.264 192.718 102.627 191.886 102.904C191.075 103.181 190.275 103.32 189.486 103.32ZM199.967 78.232H202.943V103H199.967V78.232ZM206.94 96.248C206.94 94.9253 207.249 93.7307 207.868 92.664C208.508 91.5973 209.383 90.7547 210.492 90.136C211.601 89.5173 212.86 89.208 214.268 89.208C215.719 89.208 216.988 89.5173 218.076 90.136C219.164 90.7547 220.007 91.5973 220.604 92.664C221.201 93.7307 221.5 94.9253 221.5 96.248C221.5 97.5707 221.201 98.776 220.604 99.864C220.007 100.931 219.153 101.773 218.044 102.392C216.956 103.011 215.687 103.32 214.236 103.32C212.828 103.32 211.569 103.032 210.46 102.456C209.372 101.859 208.508 101.037 207.868 99.992C207.249 98.9253 206.94 97.6773 206.94 96.248ZM209.916 96.28C209.916 97.1333 210.108 97.912 210.492 98.616C210.876 99.2987 211.388 99.8427 212.028 100.248C212.689 100.653 213.415 100.856 214.204 100.856C215.036 100.856 215.772 100.653 216.412 100.248C217.073 99.8427 217.585 99.2987 217.948 98.616C218.311 97.912 218.492 97.1333 218.492 96.28C218.492 95.4267 218.311 94.6587 217.948 93.976C217.585 93.272 217.073 92.7173 216.412 92.312C215.772 91.8853 215.036 91.672 214.204 91.672C213.393 91.672 212.657 91.8853 211.996 92.312C211.356 92.7387 210.844 93.304 210.46 94.008C210.097 94.6907 209.916 95.448 209.916 96.28ZM233.338 103.32C232.335 103.32 231.364 103.085 230.426 102.616C229.508 102.147 228.794 101.517 228.282 100.728L228.474 99.8V109.368H225.53V89.56H228.09L228.506 92.952L228.186 92.024C228.826 91.2133 229.636 90.5413 230.618 90.008C231.599 89.4747 232.698 89.208 233.914 89.208C235.151 89.208 236.26 89.5067 237.242 90.104C238.244 90.7013 239.034 91.5333 239.61 92.6C240.186 93.6667 240.474 94.9147 240.474 96.344C240.474 97.7733 240.164 99.0107 239.546 100.056C238.927 101.101 238.074 101.912 236.986 102.488C235.919 103.043 234.703 103.32 233.338 103.32ZM232.762 100.952C233.615 100.952 234.394 100.76 235.098 100.376C235.823 99.9707 236.399 99.4267 236.826 98.744C237.252 98.04 237.466 97.2507 237.466 96.376C237.466 95.48 237.263 94.6907 236.858 94.008C236.452 93.304 235.908 92.7493 235.226 92.344C234.564 91.9387 233.818 91.736 232.986 91.736C232.218 91.736 231.524 91.8853 230.906 92.184C230.287 92.4827 229.775 92.8987 229.37 93.432C228.964 93.944 228.676 94.5413 228.506 95.224V97.432C228.612 98.1147 228.868 98.7227 229.274 99.256C229.679 99.7893 230.18 100.205 230.778 100.504C231.396 100.803 232.058 100.952 232.762 100.952ZM250.642 103.32C249.128 103.32 247.826 103.021 246.738 102.424C245.65 101.805 244.808 100.973 244.21 99.928C243.634 98.8613 243.346 97.6453 243.346 96.28C243.346 94.9787 243.677 93.7947 244.338 92.728C245 91.6613 245.885 90.808 246.994 90.168C248.104 89.528 249.341 89.208 250.706 89.208C252.456 89.208 253.906 89.72 255.058 90.744C256.21 91.768 256.989 93.176 257.394 94.968L246.482 98.808L245.778 97.048L254.738 93.784L254.098 94.2C253.842 93.496 253.416 92.888 252.818 92.376C252.221 91.8427 251.442 91.576 250.482 91.576C249.672 91.576 248.946 91.7787 248.306 92.184C247.666 92.568 247.165 93.1013 246.802 93.784C246.44 94.4667 246.258 95.2453 246.258 96.12C246.258 97.0373 246.45 97.848 246.834 98.552C247.218 99.2347 247.741 99.7787 248.402 100.184C249.085 100.568 249.853 100.76 250.706 100.76C251.282 100.76 251.837 100.653 252.37 100.44C252.925 100.227 253.437 99.9493 253.906 99.608L255.282 101.816C254.621 102.264 253.874 102.627 253.042 102.904C252.232 103.181 251.432 103.32 250.642 103.32ZM263.779 89.752L264.067 93.592L263.907 93.08C264.249 92.2693 264.739 91.5867 265.379 91.032C266.041 90.456 266.723 90.0187 267.427 89.72C268.153 89.4 268.782 89.24 269.315 89.24L269.155 92.184C268.153 92.12 267.267 92.312 266.499 92.76C265.753 93.208 265.155 93.8053 264.707 94.552C264.281 95.2987 264.067 96.0987 264.067 96.952V103H261.123V89.752H263.779Z" fill="white"/>
</svg>