<svg width="60" height="60" viewBox="0 0 60 60" fill="none" xmlns="http://www.w3.org/2000/svg">
<g clip-path="url(#clip0_258_31)">
<path d="M59.9792 29.9414C59.9792 32.0508 58.4167 33.7031 56.6458 33.7031H53.3125L53.3854 52.4766C53.3854 52.793 53.3646 53.1094 53.3333 53.4258V55.3125C53.3333 57.9023 51.4688 60 49.1667 60H47.5C47.3854 60 47.2708 60 47.1563 59.9883C47.0104 60 46.8646 60 46.7188 60H43.3333H40.8333C38.5313 60 36.6667 57.9023 36.6667 55.3125V52.5V45C36.6667 42.9258 35.1771 41.25 33.3333 41.25H26.6667C24.8229 41.25 23.3333 42.9258 23.3333 45V52.5V55.3125C23.3333 57.9023 21.4688 60 19.1667 60H16.6667H13.3438C13.1875 60 13.0312 59.9883 12.875 59.9766C12.75 59.9883 12.625 60 12.5 60H10.8333C8.53125 60 6.66667 57.9023 6.66667 55.3125V42.1875C6.66667 42.082 6.66667 41.9648 6.67708 41.8594V33.7031H3.33333C1.45833 33.7031 0 32.0625 0 29.9414C0 28.8867 0.3125 27.9492 1.04167 27.1289L27.75 0.9375C28.4792 0.117188 29.3125 0 30.0417 0C30.7708 0 31.6042 0.234375 32.2292 0.820312L58.8333 27.1289C59.6667 27.9492 60.0833 28.8867 59.9792 29.9414Z" fill="white"/>
</g>
<defs>
<clipPath id="clip0_258_31">
<rect width="60" height="60" fill="white"/>
</clipPath>
</defs>
</svg>