<svg width="90" height="90" viewBox="0 0 90 90" fill="none" xmlns="http://www.w3.org/2000/svg">
<circle cx="45" cy="45" r="45" fill="#F7DF1E"/>
<path d="M56.8894 63.3596C58.2648 65.6054 60.0542 67.2561 63.219 67.2561C65.8777 67.2561 67.5761 65.9273 67.5761 64.0912C67.5761 61.891 65.8311 61.1118 62.9047 59.8317L61.3006 59.1435C56.6705 57.1709 53.5945 54.6998 53.5945 49.4756C53.5945 44.6634 57.2612 41 62.9914 41C67.071 41 70.0039 42.4198 72.1174 46.1374L67.1209 49.3456C66.0208 47.373 64.834 46.5959 62.9914 46.5959C61.112 46.5959 59.9209 47.7881 59.9209 49.3456C59.9209 51.2705 61.1131 52.0498 63.8661 53.242L65.4702 53.9291C70.9219 56.267 74 58.6504 74 64.0089C74 69.7857 69.462 72.9506 63.3675 72.9506C57.4086 72.9506 53.5588 70.1109 51.675 66.389L56.8894 63.3596ZM34.223 63.9157C35.231 65.704 36.1479 67.216 38.3525 67.216C40.4605 67.216 41.7904 66.3911 41.7904 63.1841V41.3663H48.2067V63.2708C48.2067 69.9147 44.3114 72.9386 38.6256 72.9386C33.4882 72.9386 30.513 70.28 29 67.0778L34.223 63.9157Z" fill="black"/>
</svg>