<svg width="562" height="230" viewBox="0 0 562 230" fill="none" xmlns="http://www.w3.org/2000/svg">
<g clip-path="url(#clip0_51_28742)">
<path d="M70.6247 229.53C67.2167 228.481 63.8564 226.45 63.0575 224.957C61.9357 222.859 62.0932 216.336 63.3056 214.677C64.3029 213.313 67.6 213.282 166.782 213.721C223.127 213.97 270.193 213.981 271.374 213.747C273.248 213.373 273.457 213.067 273.021 211.333C271.999 207.256 274.277 207.439 224.484 207.439H178.027L177.301 209.908C176.543 212.484 173.78 213.685 172.214 212.119C171.044 210.948 172.262 205.812 173.806 205.408C174.526 205.22 175.443 204.318 175.844 203.405C176.263 202.452 177.546 201.538 178.852 201.262C180.105 200.997 201.608 200.739 226.635 200.69C251.662 200.64 271.997 200.476 271.823 200.325C271.649 200.174 250.066 199.84 223.86 199.583L176.215 199.116L175.046 201.378L173.877 203.639L135.734 203.628C113.382 203.622 97.1251 203.322 96.4665 202.905C95.521 202.307 95.8791 201.099 98.7251 195.29C101.065 190.514 102.582 188.291 103.646 188.077C107.732 187.256 141.738 186.919 235.577 186.769C333.571 186.612 337.933 186.664 339.397 187.989C340.237 188.75 342.692 191.93 344.851 195.056C350.878 203.778 353.101 203.212 311.669 203.499C285.404 203.68 277.157 203.954 277.409 204.638C277.591 205.134 278.318 207.299 279.025 209.449C279.94 212.234 280.791 213.488 281.983 213.808C284.241 214.413 361.591 214.404 367.393 213.796L371.987 213.316L364.21 203.348C353.288 189.351 353.385 189.518 355.068 187.657C356.367 186.222 356.405 182.299 355.886 102.762C355.586 56.8978 355.103 16.3885 354.811 12.7416C354.375 7.28424 353.975 5.80523 352.554 4.38317L350.827 2.6554H219.859H88.8911L86.7853 4.76198L84.6795 6.86855L84.4552 89.6571C84.2987 147.404 84.4799 173.371 85.0541 175.504C85.7323 178.025 86.2064 178.563 87.7466 178.563C88.7748 178.563 89.6397 178.478 89.6687 178.373C89.6977 178.269 89.9869 140.806 90.3115 95.1225C90.8547 18.6458 91.0032 11.9599 92.1844 10.7779C93.3782 9.58338 102.1 9.49426 217.801 9.49426C356.228 9.49426 345.331 9.0498 348.211 14.8133C349.697 17.7865 349.735 19.595 349.943 97.7889L350.156 177.725L348.424 178.659C346.017 179.958 338.787 180.066 207.172 180.765L91.9544 181.378L89.721 183.77L87.4876 186.162H43.7438C5.36673 186.162 0 186.022 0 185.022C0 184.022 5.26711 183.882 42.8472 183.882C66.4132 183.882 86.2351 183.675 86.8958 183.421C88.6649 182.742 88.36 181.665 86.1617 180.829C81.8275 179.18 81.9643 182.291 82.1922 90.588C82.3606 22.796 82.595 6.11485 83.399 4.70448C83.9477 3.74178 85.4856 2.28983 86.8165 1.47788C89.1877 0.0313556 91.8538 0.00163131 219.483 2.30413e-05C341.966 -0.00158523 349.889 0.0775647 352.387 1.32693C356.914 3.5902 357.043 4.3564 357.751 33.3227C358.778 75.2806 358.763 186.463 357.731 188.394C356.958 189.839 357.781 191.184 365.45 201.004C374.422 212.494 375.519 214.935 372.136 215.877C371.091 216.167 350.415 216.434 326.188 216.469C292.35 216.519 281.7 216.314 280.241 215.584C278.855 214.89 277.844 213.182 276.496 209.257L274.649 203.881L246.183 203.38C197.865 202.53 177.152 202.874 178.163 204.509C178.383 204.866 199.413 205.158 224.896 205.158C254.62 205.158 271.741 205.433 272.66 205.926C273.451 206.349 274.688 208.582 275.422 210.914C276.578 214.581 276.607 215.237 275.649 215.905C274.913 216.419 239.642 216.592 169.74 216.426L64.935 216.177L64.6891 218.751C64.2526 223.323 65.0237 224.677 68.9207 226.181C72.3762 227.515 78.856 227.575 221.383 227.575C376.309 227.575 377.224 227.557 379.741 224.522C380.229 223.933 380.8 221.473 381.009 219.054L381.389 214.657L372.396 203.766C359.433 188.068 358.818 187.189 359.893 185.892C360.388 185.296 362.405 184.582 364.376 184.306C376.306 182.635 379.501 179.935 383.517 168.129C386.737 158.662 388.115 155.958 391.245 152.961C393.997 150.327 399.676 147.453 402.181 147.426C403.042 147.417 404.476 146.423 405.366 145.218C407.391 142.477 411.463 141.67 429.281 140.476C448.494 139.188 482.04 141.407 487.49 144.325C489.508 145.406 489.562 147.864 487.591 148.92C481.234 152.323 439.55 153.621 421.152 150.988C416.157 150.274 410.945 149.689 409.571 149.689C407.079 149.689 407.071 149.703 407.071 153.462C407.071 162.229 411.007 184.442 414.301 194.259C418.143 205.71 422.873 211.186 430.349 212.842C432.988 213.426 440.033 213.837 447.702 213.852C464.412 213.887 467.749 212.998 472.504 207.247C474.318 205.054 479.2 199.669 483.354 195.28L490.906 187.302L488.012 187.061C485.289 186.834 484.73 187.201 478.523 193.277C472.317 199.353 468.971 201.397 467.111 200.246C465.002 198.942 467.511 187.552 470.228 186.097C471.102 185.629 474.502 185.061 477.783 184.836L483.747 184.427L485.66 180.586C486.712 178.474 487.573 175.605 487.573 174.211C487.573 171.178 485.712 166.406 484.529 166.406C484.065 166.406 482.118 167.603 480.204 169.065C475.43 172.712 473.238 172.552 471.677 168.444C471.069 166.843 471.142 165.693 471.982 163.683C473.565 159.893 477.191 158.539 484.605 158.968C491.996 159.396 495.081 161.18 497.772 166.584C500.121 171.3 500.25 175.433 498.189 179.976C497.363 181.798 496.687 183.422 496.687 183.586C496.687 183.749 511.382 183.883 529.343 183.883C557.865 183.883 562 184.027 562 185.022C562 186.017 557.853 186.172 529.533 186.238C511.677 186.28 496.379 186.536 495.538 186.808C493.944 187.323 478.412 203.634 474.048 209.375C470.235 214.393 465.587 215.882 452.258 216.357C439.469 216.813 429.355 215.709 424.581 213.337C415.495 208.821 408.941 191.983 405.871 165.266C404.028 149.229 404.124 149.689 402.629 149.689C400.137 149.689 393.367 153.633 391.376 156.245C390.287 157.674 387.925 162.964 386.129 168C384.332 173.036 381.996 178.293 380.937 179.682C378.519 182.854 373.732 185.202 367.486 186.28C364.822 186.74 362.528 187.216 362.388 187.337C362.249 187.458 365.545 191.655 369.712 196.663C382.912 212.526 383.528 213.475 383.528 217.98C383.528 224.399 382.072 226.861 377.32 228.478C373.474 229.786 365.869 229.861 222.902 229.986C140.197 230.058 71.673 229.853 70.626 229.531L70.6247 229.53ZM175.435 208.868C175.435 208.45 175.093 208.319 174.675 208.577C174.258 208.836 173.916 209.389 173.916 209.807C173.916 210.225 174.258 210.355 174.675 210.097C175.093 209.839 175.435 209.286 175.435 208.868ZM173.243 199.649C173.738 198.709 174.519 197.688 174.979 197.381C175.969 196.72 222.279 196.762 252.772 197.452C271.234 197.87 274.415 198.112 275.176 199.153C275.941 200.2 279.379 200.444 300.113 200.92C313.34 201.223 328.963 201.228 334.831 200.931L345.499 200.389L341.634 194.796L337.769 189.202L256.792 189.203C212.254 189.203 159.643 189.431 139.877 189.707L103.939 190.211L101.334 195.387C99.9017 198.233 98.7295 200.742 98.7295 200.961C98.7295 201.18 115.293 201.36 135.536 201.36H172.343L173.243 199.649ZM476.389 192.273C478.989 189.825 480.876 187.578 480.582 187.28C480.288 186.982 478.071 187.036 475.654 187.4C470.746 188.139 469.854 189.169 468.889 195.208C468.378 198.402 468.409 198.468 470.013 197.609C470.919 197.123 473.789 194.722 476.389 192.274V192.273ZM491.974 183.892C493.331 183.884 494.129 182.998 495.574 179.893C497.736 175.246 497.893 172.749 496.269 168.861C494.589 164.837 492.503 162.908 488.67 161.835C484.25 160.596 477.408 161.186 475.432 162.975C473.811 164.443 473.356 168.257 474.702 169.09C475.142 169.362 477.097 168.341 479.047 166.821C481.358 165.019 483.235 164.135 484.438 164.281C489.15 164.854 491.353 173.806 488.416 180.448C486.434 184.93 486.434 184.921 488.521 184.361C489.461 184.109 491.015 183.898 491.974 183.892ZM342.136 177.143L347.452 176.663V98.0177C347.452 13.6875 347.482 14.3691 343.707 12.9333C341.665 12.1564 256.868 11.7027 162.426 11.9634L93.5963 12.1532L93.1259 64.3937C92.8672 93.1259 92.5456 130.619 92.4113 147.711L92.167 178.787L214.493 178.205C281.773 177.885 339.212 177.407 342.136 177.143V177.143ZM466.307 149.669C477.801 148.799 486.053 147.546 486.053 146.67C486.053 146.349 484.088 145.707 481.686 145.244C464.116 141.852 422.284 141.861 409.727 145.258C407.153 145.955 406.921 146.171 408.209 146.677C409.453 147.166 423.314 148.808 435.929 149.961C442.147 150.53 456.786 150.389 466.307 149.668V149.669Z" fill="#FF4975"/>
</g>
<defs>
<clipPath id="clip0_51_28742">
<rect width="562" height="230" fill="white"/>
</clipPath>
</defs>
</svg>