<svg width="608" height="608" viewBox="0 0 608 608" fill="none" xmlns="http://www.w3.org/2000/svg">
<path d="M266.336 606.642C168.362 594.405 76.4546 529.585 32.4007 441.653C10.1223 397.186 0.165554 355.36 0.00190001 305.555C-0.26817 223.443 28.2541 152.252 84.8209 93.8449C144.845 31.8688 219.045 0 303.321 0C460.444 0 590.059 117.506 606.522 274.876C613.658 343.086 594.69 417.437 555.367 475.392C508.602 544.317 428.667 594.14 346.499 605.579C327.122 608.276 283.999 608.848 266.336 606.642V606.642ZM347.668 599.249C409.53 589.915 463.342 563.57 508.485 520.518C554.924 476.23 585.287 420.979 596.921 359.593C602.133 332.096 602.133 276.345 596.921 248.848C579.285 155.796 514.811 72.7949 429.533 33.3598C312.643 -20.6941 175.803 5.67462 87.3584 99.2958C45.3914 143.719 17.1339 201.048 8.87431 258.525C3.87216 293.335 6.99668 350.338 15.6209 381.61C56.0909 528.353 198.576 621.744 347.668 599.249ZM256.789 589.732C164.651 574.125 86.0491 515.353 44.9223 431.316C-0.827346 337.832 5.84539 230.991 62.8601 144.104C78.3939 120.432 114.676 83.2638 137.865 67.267C188.949 32.0286 241.138 15.8271 303.664 15.7968C380.947 15.7564 447.193 42.0586 502.018 94.5427C622.151 209.545 623.073 397.471 504.066 511.61C457.604 556.171 399.689 584.109 338.992 591.242L323.66 593.044V550.16V507.276L333.659 505.687C354.278 502.411 387.974 490.114 406.817 478.989C475.979 438.156 515.739 357.936 505.387 280.115C499.043 232.423 479.796 193.304 446.347 160.116C415.805 129.812 383.237 112.691 340.269 104.352C323.511 101.1 318.406 99.1115 319.006 96.0696C320.024 90.9037 334.11 91.8735 360.453 98.9231C427.558 116.881 482.022 168.606 505.729 236.894C512.682 256.923 513.984 265.051 515.016 294.88C516.474 336.986 510.693 365.812 494.146 398.956C466.629 454.07 413.309 496.822 354.323 511.066C344.057 513.545 334.159 516.801 332.326 518.302C327.635 522.143 328.178 535.058 333.208 539.236C343.334 547.647 399.457 529.637 434.532 506.72C484.457 474.1 517.915 428.723 536.061 369.019C542.375 348.243 543.201 341.041 543.34 305.555C543.461 274.651 542.371 261.319 538.563 247.071C506.64 127.646 397.7 51.0954 278.497 64.327C168.179 76.5725 82.532 158.557 64.9444 268.747C61.7375 288.839 65.6488 298.883 76.679 298.883C86.0475 298.883 90.3931 291.544 93.9463 269.721C105.139 200.976 147.239 144.345 210.88 112.424C240.428 97.6032 286.698 87.8318 288.322 96.0696C288.921 99.1115 283.816 101.1 267.058 104.352C224.12 112.686 191.573 129.787 160.931 160.116C87.4293 232.868 80.3375 344.731 143.865 429.315C168.774 462.481 212.418 491.001 253.005 500.635C274.938 505.841 278.859 507.446 278.42 511.037C277.904 515.265 258.135 513.173 238.769 506.842C182.971 488.6 137.617 448.967 111.727 395.827C102.53 376.949 91.7509 338.972 91.714 325.316C91.6737 311.074 73.9718 304.236 66.5381 315.591C63.365 320.438 63.0723 325.047 65.0501 339.025C74.6879 407.14 116.037 470.613 175.344 508.333C198.487 523.052 217.583 530.856 250.339 538.983C266.469 542.984 279.667 547.34 279.667 548.662C279.667 553.344 262.725 552.613 240.681 546.98C149.352 523.641 78.4031 449.421 58.2041 356.09C51.5598 325.389 52.0429 277.44 59.2988 247.448C77.919 170.48 128.495 108.718 199.97 75.6661C222.313 65.3341 251.145 57.2711 275.682 54.4926C293.771 52.4442 301.747 45.4618 298.324 34.6697C295.728 26.4829 287.248 24.3806 267.669 27.0705C128.203 46.2324 25.0386 163.483 25.0386 302.831C25.0386 450.756 134.03 569.243 282.889 583.148L302.109 584.943L302.887 532.706L303.664 480.469L291.666 479.02C240.662 472.858 198.642 451.375 170.279 416.959C88.0563 317.19 135.265 168.397 259.901 134.487C282.795 128.258 324.588 128.28 347.657 134.527C403.823 149.749 450.066 192.729 469.046 247.352C476.89 269.929 478.75 289.539 473.046 289.539C470.483 289.539 468.42 285.433 467.103 277.714C460.801 240.765 438.611 201.463 411.125 178.569C337.146 116.95 229.026 128.869 171.78 204.954C148.871 235.402 133.553 284.351 143.742 294.549C150.211 301.024 161.443 299.112 165.335 290.873C167.068 287.204 169.838 278.198 171.491 270.859C181.828 224.951 221.661 184.35 268.651 171.827C284.725 167.544 320.015 167.1 336.791 170.97C370.354 178.713 407.703 207.802 424.246 239.085C460.729 308.072 433.533 393.149 364.635 425.566C353.097 430.995 340.658 436.872 336.992 438.627C329.347 442.287 326.652 454.291 332.023 460.768C337.286 467.116 353.738 463.619 379.049 450.774C425.125 427.391 455.495 386.558 466.22 333.571C468.189 323.846 470.503 318.894 473.081 318.894C482.767 318.894 470.919 365.39 453.83 394.442C448.961 402.722 436.254 418.216 425.592 428.875C410.145 444.319 401.211 450.641 381.599 460.008C358.946 470.827 338.097 477.676 327.813 477.676C324.366 477.676 323.661 473.65 323.661 453.975V430.275L336.326 427.086C343.291 425.332 355.799 420.267 364.12 415.83C439.68 375.543 453.506 272.457 391.446 212.09C376.892 197.932 344.725 181.377 328.133 179.505C317.472 178.303 315.712 178.904 311.625 185.147C304.685 195.748 310.852 203.176 331.884 209.55C350.461 215.179 369.785 228.388 382.058 243.844C401.848 268.769 407.593 308.874 395.785 339.668C385.033 367.708 353.688 395.242 327.718 399.46C320.229 400.676 318.328 400.114 318.328 396.684C318.328 394.199 321.425 391.636 325.66 390.615C349.369 384.902 374.941 363.138 385.863 339.377C393.996 321.686 393.971 286.697 385.813 268.945C365.101 223.872 312.032 203.112 268.037 222.874C249.089 231.384 230.18 250.101 221.493 268.945C213.421 286.456 213.45 321.477 221.554 339.377C229.53 357 247.512 375.437 265.675 384.614C279.958 391.83 283.703 397.618 274.09 397.618C265.237 397.618 243.679 383.695 230.952 369.758C182.244 316.416 206.138 230.552 275.543 209.52C296.474 203.177 302.633 195.731 295.704 185.147C291.617 178.904 289.857 178.303 279.195 179.505C272.632 180.246 258.655 185.11 248.135 190.313C203.176 212.555 177.017 254.377 177.017 304.014C177.017 339.851 189.133 368.82 214.839 394.444C228.566 408.128 260.736 426.972 270.368 426.972C272.925 426.972 276.498 428.76 278.309 430.944C283.225 436.872 275.537 438.874 263.114 434.9C216.337 419.938 179.065 378.736 169.201 331.085C165.668 314.018 162.561 309.554 154.218 309.554C143.222 309.554 138.901 316.794 140.899 331.869C147.429 381.144 185.614 430.964 234.575 454.094C250.731 461.726 281.085 469.535 294.938 469.624L302.209 469.674L302.936 422.378L303.664 375.082L314.746 373.191C347.618 367.581 374.32 336.667 374.32 304.221C374.32 286.854 366.001 268.372 352.072 254.796C330.531 233.8 301.091 228.619 274.335 241.116C250.708 252.151 233.008 279.18 233.008 304.221C233.008 331.124 254.397 360.825 280.334 369.939L294.332 374.857V416.928V459H286.893C275.002 459 250.237 451.695 233.656 443.296C192.212 422.305 162.548 384.63 152.071 339.682C148.584 324.72 149.961 313.613 154.713 318.37C155.805 319.462 159.528 330.235 162.988 342.31C170.768 369.457 181.754 388.111 201.797 408.203C218.553 425 239.366 437.368 262.143 444.065C275.129 447.882 277.249 447.902 282.807 444.257C286.343 441.938 288.999 437.538 288.999 434C288.999 427.124 281.486 418.97 275.15 418.97C265.887 418.97 233.386 399.722 220.126 386.383C158.102 323.987 184.611 217.898 268.799 191.596C278.646 188.519 285.536 187.605 287.097 189.168C290.93 193.004 287.188 196.867 277.637 198.937C248.866 205.17 214.675 234.851 203.342 263.432C194.648 285.36 194.648 323.081 203.342 345.009C211.582 365.789 233.898 389.646 254.94 400.17C273.913 409.659 278.521 410.123 284.801 403.179C292.957 394.159 289.213 386.435 272.335 377.464C240.272 360.42 224.799 336.838 224.698 304.862C224.617 279.412 231.928 262.816 250.841 245.516C281.843 217.157 324.748 216.871 355.804 244.816C375.017 262.106 382.267 278.38 382.267 304.22C382.267 319.599 380.823 327.338 376.033 337.632C367.54 355.887 346.77 374.143 327.642 380.164C310.685 385.503 304.934 392.868 310.132 402.59C314.354 410.486 322.999 411.908 336.905 406.995C356.024 400.239 370.001 390.839 384.442 375.025C403.942 353.67 410.148 336.303 410.241 302.827C410.311 278.058 409.685 274.806 401.796 258.796C387.682 230.153 365.233 210.331 336.614 201.242C319.886 195.93 316.141 193.261 319.998 189.4C321.869 187.528 327.817 188.245 338.807 191.668C394.538 209.029 430.298 267.48 419.91 324.235C411.396 370.752 373.154 410.284 327.862 419.387L312.996 422.375V455.365C312.996 493.494 310.713 491.321 343.132 484.049C410.4 468.961 465.422 416.109 482.126 350.536C489.691 320.841 487.114 309.558 472.765 309.558C463.149 309.558 461.066 312.861 455.94 336.244C445.114 385.628 414.393 424.18 368.928 445.437C359.429 449.879 348.789 453.846 345.285 454.254C336.08 455.326 335.239 448.939 344.115 445.36C396.473 424.248 425.846 396.509 441.405 353.485C448.54 333.756 451.014 293.74 446.415 272.467C433.985 214.966 384.202 168.516 325.445 159.594C250.196 148.168 176.883 198.658 160.796 272.986C157.188 289.659 155.138 292.677 150.929 287.512C146.796 282.442 156.669 247.702 168.013 227.399C187.188 193.081 223.294 165.085 263.67 153.228C288.783 145.853 325.106 146.971 351.555 155.933C406.304 174.484 444.034 216.626 456.065 272.662C459.8 290.059 461.841 294.664 466.823 296.936C471.203 298.933 474.89 298.865 479.638 296.7C487.748 293.002 488.416 282.593 482.126 257.905C465.51 192.68 408.777 137.944 343.424 124.087C246.125 103.456 150.02 162.708 124.835 258.854C118.734 282.145 118.767 326.506 124.905 349.586C143.5 419.533 198.82 471.13 270.06 484.974L294.317 489.688L294.325 531.718L294.333 573.748L284.334 573.718C268.312 573.658 228.128 564.408 204.99 555.446C171.926 542.64 141.415 522.384 114.196 495.17C70.4557 451.436 45.9918 403.65 36.9366 344.254C32.0761 312.372 32.0756 296.086 36.9337 264.196C54.2587 150.471 138.393 62.4432 252.229 38.9393C280.016 33.2019 289.658 33.3155 288.497 39.366C287.805 42.9643 283.795 44.4569 271.021 45.8701C201.832 53.5247 129.532 97.2014 89.3927 155.592C76.2565 174.702 57.6992 215.178 51.2241 238.844C42.7886 269.674 42.7354 338.677 51.1233 369.028C79.2392 470.758 164.869 547.706 265.777 561.918C280.288 563.961 289.002 558.858 289.002 548.314C289.002 539.405 283.701 536.529 257.303 531.116C210.429 521.504 172.959 500.878 138.357 465.639C112.785 439.596 94.9011 410.598 83.7927 377.164C74.6394 349.615 70.6273 322.04 75.3475 319.12C79.2758 316.69 82.045 324.396 87.2563 352.259C92.5852 380.752 112.169 421.271 132.463 445.795C164.406 484.395 208.998 511.412 257.266 521.411C274.674 525.017 277.653 525.032 282.978 521.539C289.984 516.945 290.928 506.623 284.807 501.539C282.5 499.622 270.121 495.4 257.297 492.155C186.073 474.135 133.495 421.303 115.362 349.535C110.707 331.111 109.959 321.962 111.018 296.404C113.258 242.376 129.788 204.715 168.073 166.415C198.304 136.171 235.434 117.975 281.69 110.735C288.262 109.706 293.183 106.915 295.994 102.62C299.937 96.5976 299.93 95.5393 295.914 89.4019C290.756 81.5242 283.068 80.9713 256.641 86.5775C170.627 104.825 101.79 175.99 85.249 263.765C80.6761 288.032 79.2657 291.752 75.5169 289.433C71.5984 287.009 72.5998 272.078 78.1205 250.612C86.0374 219.829 93.5398 202.099 108.084 179.8C133.817 140.347 165.263 112.895 206.766 93.6528C235.963 80.1158 257.698 74.7433 290.922 72.8503C454.523 63.5291 575.029 221.659 523.304 377.786C503.675 437.03 458.397 488.032 402.464 513.897C378.317 525.063 342.425 534.888 338.85 531.309C334.878 527.335 338.9 523.786 349.631 521.786C394.291 513.466 443.59 483.678 474.228 446.501C545.835 359.614 542.003 233.541 465.256 151.284C431.639 115.253 379.345 88.5233 333.219 83.7935C316.953 82.1254 316.038 82.3489 311.643 89.0625C307.405 95.5359 307.382 96.5754 311.34 102.62C314.113 106.856 319.163 109.761 325.644 110.848C351.186 115.135 369.575 121.038 392.53 132.322C436.574 153.972 472.292 195.789 488.073 244.181C498.134 275.029 499.751 318.745 491.972 349.535C472.021 428.499 406.206 487.687 328.997 496.1L314.333 497.698L313.605 545.065L312.877 592.433L290.942 592.119C278.877 591.947 263.51 590.874 256.793 589.737L256.789 589.732ZM382.319 571.959C458.033 550.251 521.243 496.139 555.715 423.522C575.852 381.103 587.795 323.455 578.395 314.048C572.907 308.554 562.727 308.212 558.444 313.378C556.701 315.479 554.126 325.325 552.72 335.256C551.315 345.188 548.289 360.581 545.996 369.463C523.598 456.214 448.713 528.619 360.988 548.345C330.687 555.158 328.993 556.14 328.993 566.888C328.993 583.595 338.561 584.505 382.319 571.959V571.959ZM336.992 567.128C336.992 564.955 339.691 562.627 342.991 561.956C387.26 552.952 414.576 542.453 444.976 522.758C507.371 482.334 549.356 416.898 561.224 341.581C564.526 320.624 567.646 313.79 571.248 319.624C574.473 324.846 569.576 358.002 561.994 382.283C533.449 473.697 461.495 542.404 369.695 565.903C345.273 572.155 336.992 572.465 336.992 567.128ZM578.415 294.373C583.929 288.855 582.304 266.404 574.043 233.928C546.886 127.171 455.542 44.4951 346.732 28.1874C319.263 24.0705 313.505 24.9958 310.054 34.0826C305.479 46.1252 312.535 52.4151 333.089 54.6182C385.294 60.2138 436.426 84.5545 476.993 123.123C518.809 162.879 544.414 213.565 552.731 273.047C554.131 283.054 556.701 292.961 558.444 295.063C562.733 300.236 572.909 299.884 578.415 294.373V294.373ZM565.162 287.842C564.506 285.842 562.546 275.199 560.807 264.191C554.867 226.597 538.805 185.945 517.845 155.454C477.854 97.2772 405.361 53.5052 336.361 45.8718C322.962 44.3894 319.541 43.0451 318.755 38.953C317.854 34.2614 319.028 34.0048 334.157 35.5874C375.841 39.948 421.22 57.2396 458.288 82.8868C485.149 101.472 519.213 137.962 535.561 165.662C558.817 205.066 579.805 280.306 569.848 288.576C567.274 290.715 566.041 290.522 565.162 287.842V287.842Z" fill="black"/>
</svg>