<svg width="90" height="90" viewBox="0 0 90 90" fill="none" xmlns="http://www.w3.org/2000/svg">
<g clip-path="url(#clip0_277_39)">
<path d="M45 90C69.8528 90 90 69.8528 90 45C90 20.1472 69.8528 0 45 0C20.1472 0 0 20.1472 0 45C0 69.8528 20.1472 90 45 90Z" fill="#13AA52"/>
<path d="M57.0287 39.5016C54.1863 26.9569 47.4689 22.8322 46.7455 21.2563C45.9545 20.1445 45.1529 18.167 45.1529 18.167C45.1398 18.1336 45.1187 18.0747 45.0941 18.0176C45.0123 19.1294 44.9701 19.5583 43.919 20.6798C42.2912 21.9524 33.9399 28.96 33.2605 43.2123C32.6268 56.5049 42.8625 64.4256 44.2468 65.4355L44.4041 65.5471V65.5374C44.4129 65.6042 44.8436 68.7015 45.1459 71.9833H46.2305C46.4849 69.6635 46.8664 67.3593 47.3731 65.0812L47.4609 65.0241C48.0802 64.5801 48.6705 64.0972 49.2284 63.5783L49.2917 63.5212C52.2343 60.8027 57.5244 54.515 57.4726 44.4902C57.4616 42.818 57.3132 41.1495 57.0287 39.5016ZM45.0308 57.9305C45.0308 57.9305 45.0308 39.2871 45.646 39.2906C46.1259 39.2906 46.7473 63.3384 46.7473 63.3384C45.893 63.2355 45.0308 59.3807 45.0308 57.9305Z" fill="white"/>
</g>
<defs>
<clipPath id="clip0_277_39">
<rect width="90" height="90" fill="white"/>
</clipPath>
</defs>
</svg>