<?xml version="1.0" standalone="no"?>
<!DOCTYPE svg PUBLIC "-//W3C//DTD SVG 20010904//EN"
 "http://www.w3.org/TR/2001/REC-SVG-20010904/DTD/svg10.dtd">
<svg version="1.0" xmlns="http://www.w3.org/2000/svg"
 width="512.000000pt" height="446.000000pt" viewBox="0 0 512.000000 446.000000"
 preserveAspectRatio="xMidYMid meet">
<g transform="translate(0.000000,446.000000) scale(0.100000,-0.100000)"
fill="#fff" stroke="none">
<path d="M40 4447 c-36 -18 -48 -59 -28 -101 48 -99 2483 -4304 2504 -4324 32
-28 56 -28 88 1 21 18 2457 4225 2504 4324 20 41 8 82 -28 100 -20 10 -395 13
-1801 13 l-1776 0 -27 -21 c-33 -26 -36 -79 -6 -109 19 -19 33 -20 417 -20
240 0 393 -4 387 -9 -27 -27 -928 -561 -939 -557 -11 4 -202 114 -783 450
l-192 111 420 5 c456 5 441 3 455 62 6 22 1 33 -23 58 l-30 30 -559 0 c-428 0
-564 -3 -583 -13z m4695 -156 c-81 -52 -921 -534 -930 -534 -11 0 -932 528
-949 544 -6 5 397 9 950 9 946 0 959 -1 929 -19z m-3918 -423 l422 -243 1
-554 c0 -305 -2 -552 -4 -550 -9 11 -946 1639 -946 1645 0 3 24 -8 53 -25 28
-17 242 -140 474 -273z m2369 66 c225 -129 422 -243 437 -253 l28 -18 -221
-127 c-122 -70 -223 -126 -224 -124 -1 2 -92 158 -200 348 -109 190 -207 360
-218 378 -11 17 -18 32 -15 32 3 0 189 -106 413 -236z m1172 -592 l-473 -819
-5 179 c-5 174 -6 180 -29 199 -30 25 -62 24 -95 -2 l-26 -20 0 -182 c0 -105
-4 -177 -9 -171 -5 5 -104 175 -221 377 -177 307 -210 371 -199 381 15 14 415
246 423 246 4 0 6 -80 6 -177 0 -168 1 -178 22 -200 26 -28 67 -30 99 -4 24
19 24 21 27 248 l4 228 471 271 c260 150 473 271 475 269 2 -2 -210 -372 -470
-823z m-2229 442 c-117 -203 -214 -370 -215 -372 -3 -4 -414 232 -414 238 0 6
834 510 838 506 1 -2 -93 -169 -209 -372z m351 -203 l0 -500 -73 42 c-41 23
-140 80 -220 126 l-146 85 18 30 c10 17 107 185 216 374 108 188 199 342 201
342 2 0 4 -225 4 -499z m370 149 c106 -184 201 -349 211 -366 l18 -30 -171
-100 c-95 -54 -194 -111 -220 -127 l-48 -27 0 502 c0 288 4 498 9 493 5 -6 95
-161 201 -345z m-1231 -325 c116 -66 210 -124 211 -129 0 -9 -416 -735 -431
-751 -5 -5 -9 204 -9 499 0 318 4 506 10 504 5 -1 104 -57 219 -123z m567
-327 c117 -68 212 -127 211 -131 -1 -4 -58 -41 -127 -80 -140 -82 -161 -105
-141 -155 15 -37 57 -57 92 -43 13 5 75 39 138 75 62 36 115 66 117 66 2 0 4
-115 4 -255 l0 -255 -436 0 c-268 0 -433 4 -429 9 3 6 77 51 165 101 88 50
165 100 170 110 27 50 -7 110 -60 110 -19 0 -87 -33 -192 -94 -90 -52 -164
-93 -166 -91 -4 3 431 755 437 755 2 0 100 -55 217 -122z m1187 -254 c120
-207 216 -378 215 -379 -5 -5 -862 493 -865 502 -2 7 413 252 427 253 3 0 104
-169 223 -376z m-290 -264 c235 -135 426 -248 427 -252 0 -5 -196 -8 -435 -8
l-435 0 0 256 c0 141 4 254 9 252 5 -1 200 -113 434 -248z m-603 -661 c0 -138
-4 -249 -8 -247 -21 8 -852 490 -852 494 0 2 194 4 430 4 l430 0 0 -251z m601
1 c-238 -137 -435 -250 -437 -250 -2 0 -4 113 -4 250 l0 250 437 0 437 0 -433
-250z m-1029 -180 l426 -245 3 -192 c4 -182 5 -194 26 -214 29 -29 77 -29 106
0 21 20 22 33 27 213 l5 192 470 272 c259 150 471 271 473 269 1 -1 -210 -371
-470 -821 l-473 -819 -6 205 c-3 113 -7 206 -7 207 -17 22 -52 43 -72 43 -20
0 -55 -21 -72 -43 0 -1 -4 -94 -7 -207 l-6 -205 -470 814 c-259 447 -472 818
-474 823 -2 5 19 -3 46 -19 27 -15 241 -138 475 -273z"/>
</g>
</svg>
