<svg width="406" height="406" viewBox="0 0 406 406" fill="none" xmlns="http://www.w3.org/2000/svg">
<g filter="url(#filter0_d_43_18)">
<circle cx="203" cy="199" r="199" fill="#2D2D2D"/>
</g>
<circle cx="203" cy="199" r="184.5" stroke="#494949"/>
<circle cx="203" cy="199" r="171.5" stroke="#494949"/>
<circle cx="203" cy="199" r="158.5" stroke="#494949"/>
<circle cx="203" cy="199" r="145.5" stroke="#494949"/>
<circle cx="203" cy="199" r="132.5" stroke="#494949"/>
<path d="M122 199C122 154.265 158.265 118 203 118V118C247.735 118 284 154.265 284 199V199H122V199Z" fill="#5738D2"/>
<path d="M122 199C122 243.735 158.265 280 203 280V280C247.735 280 284 243.735 284 199V199H122V199Z" fill="#9382DB"/>
<mask id="path-9-inside-1_43_18" fill="white">
<path d="M133 199C133 237.66 164.34 269 203 269V269C241.66 269 273 237.66 273 199V199H133V199Z"/>
</mask>
<path d="M126 199C126 241.526 160.474 276 203 276C245.526 276 280 241.526 280 199H266C266 233.794 237.794 262 203 262C168.206 262 140 233.794 140 199H126ZM273 199H133H273ZM126 199C126 241.526 160.474 276 203 276V262C168.206 262 140 233.794 140 199H126ZM203 276C245.526 276 280 241.526 280 199H266C266 233.794 237.794 262 203 262V276Z" fill="#5738D2" mask="url(#path-9-inside-1_43_18)"/>
<mask id="path-11-inside-2_43_18" fill="white">
<path d="M133 199C133 160.34 164.34 129 203 129V129C241.66 129 273 160.34 273 199V199H133V199Z"/>
</mask>
<path d="M126 199C126 156.474 160.474 122 203 122C245.526 122 280 156.474 280 199H266C266 164.206 237.794 136 203 136C168.206 136 140 164.206 140 199H126ZM273 199H133H273ZM126 199C126 156.474 160.474 122 203 122V136C168.206 136 140 164.206 140 199H126ZM203 122C245.526 122 280 156.474 280 199H266C266 164.206 237.794 136 203 136V122Z" fill="#9382DB" mask="url(#path-11-inside-2_43_18)"/>
<circle cx="203" cy="199" r="6" fill="white"/>
<defs>
<filter id="filter0_d_43_18" x="0" y="0" width="406" height="406" filterUnits="userSpaceOnUse" color-interpolation-filters="sRGB">
<feFlood flood-opacity="0" result="BackgroundImageFix"/>
<feColorMatrix in="SourceAlpha" type="matrix" values="0 0 0 0 0 0 0 0 0 0 0 0 0 0 0 0 0 0 127 0" result="hardAlpha"/>
<feOffset dy="4"/>
<feGaussianBlur stdDeviation="2"/>
<feComposite in2="hardAlpha" operator="out"/>
<feColorMatrix type="matrix" values="0 0 0 0 0 0 0 0 0 0 0 0 0 0 0 0 0 0 0.25 0"/>
<feBlend mode="normal" in2="BackgroundImageFix" result="effect1_dropShadow_43_18"/>
<feBlend mode="normal" in="SourceGraphic" in2="effect1_dropShadow_43_18" result="shape"/>
</filter>
</defs>
</svg>
