<svg width="398" height="398" viewBox="0 0 398 398" fill="none" xmlns="http://www.w3.org/2000/svg">
<circle cx="199" cy="199" r="199" fill="#3D3D3D"/>
<circle cx="199" cy="199" r="184.5" stroke="#1d1d1d"/>
<circle cx="199" cy="199" r="171.5" stroke="#1d1d1d"/>
<circle cx="199" cy="199" r="158.5" stroke="#1d1d1d"/>
<circle cx="199" cy="199" r="145.5" stroke="#1d1d1d"/>
<circle cx="199" cy="199" r="132.5" stroke="#1d1d1d"/>
<path d="M118 199C118 154.265 154.265 118 199 118V118C243.735 118 280 154.265 280 199V199H118V199Z" fill="#5738D2"/>
<path d="M118 199C118 243.735 154.265 280 199 280V280C243.735 280 280 243.735 280 199V199H118V199Z" fill="#9382DB"/>
<mask id="path-9-inside-1_43_18" fill="white">
<path d="M129 199C129 237.66 160.34 269 199 269V269C237.66 269 269 237.66 269 199V199H129V199Z"/>
</mask>
<path d="M122 199C122 241.526 156.474 276 199 276C241.526 276 276 241.526 276 199H262C262 233.794 233.794 262 199 262C164.206 262 136 233.794 136 199H122ZM269 199H129H269ZM122 199C122 241.526 156.474 276 199 276V262C164.206 262 136 233.794 136 199H122ZM199 276C241.526 276 276 241.526 276 199H262C262 233.794 233.794 262 199 262V276Z" fill="#5738D2" mask="url(#path-9-inside-1_43_18)"/>
<mask id="path-11-inside-2_43_18" fill="white">
<path d="M129 199C129 160.34 160.34 129 199 129V129C237.66 129 269 160.34 269 199V199H129V199Z"/>
</mask>
<path d="M122 199C122 156.474 156.474 122 199 122C241.526 122 276 156.474 276 199H262C262 164.206 233.794 136 199 136C164.206 136 136 164.206 136 199H122ZM269 199H129H269ZM122 199C122 156.474 156.474 122 199 122V136C164.206 136 136 164.206 136 199H122ZM199 122C241.526 122 276 156.474 276 199H262C262 164.206 233.794 136 199 136V122Z" fill="#9382DB" mask="url(#path-11-inside-2_43_18)"/>
<circle cx="199" cy="199" r="6" fill="white"/>
</svg>
