<svg width="208" height="262" viewBox="0 0 208 262" fill="none" xmlns="http://www.w3.org/2000/svg">
<path d="M206.794 231.154L205.735 224.051C205.438 221.671 204.63 219.394 204.097 217.061C201.525 207.819 197.422 199.074 191.959 191.188C190.204 188.957 188.761 186.547 186.842 184.475L187.692 185.339C176.016 171.577 160.304 161.841 142.783 157.512C142.822 155.83 142.755 154.146 142.584 152.472C142.415 151.136 142.251 149.059 142.108 146.654C142.108 146.408 142.082 145.988 142.072 145.512C145.108 143.69 148.015 141.661 150.771 139.438C155.835 135.139 160.263 130.142 163.922 124.598C168.75 117.193 172.039 108.892 173.594 100.189C173.773 100.732 173.271 103.439 173.543 103.024C173.65 102.809 174.106 101.842 174.489 99.3349C174.699 98.0863 175.001 96.4692 175.288 94.3866C175.4 92.3397 175.615 89.6429 175.671 86.7108C175.84 87.5039 175.922 88.2459 176.014 89.0237C176.173 80.6878 176.229 72.705 176.198 67.0608C176.188 58.8975 174.555 50.8178 171.393 43.2914C169.858 39.6378 168.963 38.5887 167.811 36.373L168.052 37.0843C166.22 33.5889 164.094 30.2558 161.696 27.1211C160.612 25.6138 159.429 24.1796 158.155 22.8278C156.994 21.5639 156.032 20.3357 155.085 19.4965C149.761 14.1315 143.545 9.73341 136.714 6.49886C129.174 2.91482 121.028 0.778071 112.699 0.199599C110.217 0.0972555 106.666 -0.148369 103.611 0.133076C96.6434 0.494553 89.7694 1.9004 83.2192 4.30358L82.733 4.46733C82.6102 4.50827 82.4925 4.56968 82.3748 4.61062C81.7352 4.85624 81.0802 5.05069 80.4508 5.31679C80.2051 5.41913 79.9749 5.55218 79.7344 5.65964C68.149 10.4084 57.5667 19.1434 50.2389 29.6234C48.1103 32.704 46.2412 35.9561 44.6509 39.3461L44.1904 40.5077L46.1758 36.593C46.5903 35.8408 47.0509 35.1193 47.5165 34.4029C44.1313 40.1868 41.6401 46.4494 40.1273 52.9783C40.0864 53.1216 40.0608 53.2648 40.0199 53.4081C39.667 54.423 39.4067 55.4678 39.2421 56.5296C38.8736 58.9347 38.2186 61.4165 38.1879 64.0212L37.9525 68.381C37.8911 70.5967 37.9525 73.0786 37.9218 75.4376C37.9218 80.2017 37.9218 85.017 37.9525 89.8169V93.3989V94.7396C38.0783 94.6723 38.1996 94.5971 38.3158 94.5145L38.4028 94.4531C38.4028 94.6373 38.4028 94.8215 38.4335 95.0006L38.8838 98.1221L39.3495 101.238C39.544 102.262 39.8612 103.285 40.0813 104.309C40.5337 106.355 41.1235 108.369 41.8467 110.337C44.6056 118.353 48.856 125.776 54.3736 132.213L57.6946 135.887C59.4805 137.811 61.1487 139.218 62.515 140.492C63.8813 141.767 65.2732 142.59 66.4501 143.465C68.7785 145.257 71.0556 146.285 73.8701 148.02C75.1536 148.717 76.5114 149.268 77.9178 149.662C78.4704 149.821 76.6282 148.818 77.5954 149.187C77.8973 149.335 78.2862 149.504 78.7314 149.698C78.7314 149.698 78.7314 149.749 78.7314 149.77C63.1137 151.929 47.4398 158.387 35.0204 168.417C30.8682 171.722 27.0186 175.39 23.5169 179.378L22.3963 180.749C27.8819 174.465 34.3551 169.164 41.2019 164.518C48.203 160.101 55.745 156.606 63.6408 154.119C64.5812 153.742 65.5474 153.433 66.532 153.193C65.5647 153.493 64.6192 153.859 63.7022 154.288C68.6298 152.789 73.6667 151.675 78.7672 150.957C78.7672 152.446 78.716 153.685 78.6444 154.575C78.5369 155.982 78.496 157.589 78.4806 159.58H78.3169L78.2555 152.492C78.2555 154.954 78.2248 157.292 78.2094 159.615L75.5587 160.025L75.2722 160.096C75.2466 159.073 75.2159 158.244 75.1749 157.881C75.0726 156.888 74.9242 157.783 74.7605 157.881L74.699 156.095C74.699 157.686 74.699 159.017 74.699 160.229C73.6398 160.49 72.5805 160.777 71.5315 161.038L67.5964 162.061L64.0144 163.392C56.3386 166.119 51.2214 169.297 48.0999 171.068C46.3242 171.953 44.6151 173.288 42.6194 174.737C41.642 175.484 40.5367 176.195 39.4877 177.116L36.182 180.12C33.7001 182.167 31.6993 184.725 29.4682 187.064L29.3966 187.033C35.6223 179.532 43.1682 173.233 51.6615 168.448C48.9801 170.121 46.2065 171.518 43.8526 173.447L40.2245 176.154C39.0374 177.075 37.9883 178.145 36.8626 179.132C25.8964 188.824 18.0313 201.817 13.5896 215.434C12.9141 218.192 12.0033 221.114 11.4199 223.923L10.1355 231.517C9.79775 235.759 9.53678 237.76 9.56748 234.362C9.47025 229.245 10.683 221.907 12.3461 215.311C12.5406 214.456 13.7533 211.396 14.48 209.354L14.352 210.183C14.7665 209.058 15.0889 207.963 15.5341 206.939L16.9465 203.92C17.9089 201.678 19.0308 199.508 20.3033 197.426C19.2038 199.07 18.2321 200.797 17.3968 202.589L16.2352 204.923C15.9998 205.117 15.6672 205.583 15.6825 205.343C15.7849 204.672 13.8608 207.558 18.4356 198.214C19.5153 196.393 20.8458 193.988 22.1199 192.012C23.4913 190.104 24.6274 188.512 24.9088 188.052C25.4397 187.191 26.0206 186.362 26.6486 185.57L30.507 181.287C33.537 178.093 36.7858 175.115 40.2297 172.373C41.9183 170.981 40.2297 172.045 39.9585 172.06L43.0953 169.64C40.025 171.963 37.3538 173.759 35.3069 175.781C33.1833 177.72 31.2132 179.363 29.591 181.307L28.7774 182.484C25.9067 185.37 23.7319 188.548 21.4394 191.516C20.3647 193.051 19.459 194.668 18.4714 196.229C17.4563 197.769 16.5566 199.382 15.7797 201.054L13.3491 206.115C12.6378 207.87 12.0288 209.697 11.3483 211.539L10.3248 214.349L9.5726 217.327C9.11717 219.374 8.42635 221.39 8.1142 223.596C8.24688 222.445 8.45716 221.305 8.74361 220.182C8.2236 222.092 7.83885 224.037 7.59224 226.001L6.81955 230.944C6.60974 232.305 6.45111 232.776 6.22084 235.038C6.17478 235.636 6.06221 237.171 5.9394 238.819C5.83285 240.434 5.97261 242.056 6.35389 243.629C7.39518 247.907 9.9908 251.645 13.6356 254.114C15.4087 255.318 17.3878 256.185 19.4744 256.673C21.4593 257.071 23.4845 257.233 25.5075 257.154L47.9208 257.231H58.9125L110.719 256.98L173.809 256.535C181.403 256.453 192.312 256.422 190.312 256.1C189.8 255.992 190.148 256.023 192.041 255.89C195.096 255.671 198.027 254.595 200.498 252.784C202.968 250.974 204.877 248.503 206.006 245.656C206.918 243.339 207.298 240.847 207.117 238.364L206.794 231.154ZM170.012 58.7146C170.368 60.7418 170.539 62.7971 170.523 64.8553C170.523 65.7098 170.616 67.9256 170.667 69.6245C170.667 72.1114 170.697 75.1613 170.718 78.3237L170.324 78.4465C169.996 78.554 169.7 78.6256 169.382 78.728C169.382 77.8069 169.382 76.896 169.382 75.9903C169.587 75.9033 169.766 75.8367 169.981 75.7344C169.981 74.5267 169.981 73.0274 170.017 71.2006C170.053 69.3737 169.955 67.5571 169.863 65.8275C169.863 65.413 169.787 65.0037 169.766 64.5892C169.82 64.2354 169.842 63.8774 169.833 63.5197C169.833 61.6161 169.51 59.5487 169.321 57.3791C169.132 55.2094 168.492 52.9834 168.083 50.7267C169.285 54.8614 169.838 56.9287 170.012 58.7146ZM166.046 76.0721C163.262 76.9657 160.411 77.6382 157.521 78.0832C153.081 78.7375 148.583 78.8988 144.109 78.5642C129.499 77.4333 115.452 72.5771 102.148 66.5542C102.081 66.5163 102.02 66.468 101.969 66.4109L104.015 67.3064C112.377 71.0575 121.071 74.0163 129.985 76.1438C138.879 78.16 148.11 79.1783 157.106 77.8939C158.555 77.7309 159.994 77.4866 161.415 77.1621C163.453 76.7008 165.447 76.0657 167.376 75.2636L168.083 74.9822L168.323 74.8798V75.5758C168.067 75.673 167.811 75.7651 167.566 75.8828C167.965 75.5195 167.52 75.5655 166.061 76.0721H166.046ZM79.8521 57.7014L72.4833 62.6395L77.3958 59.2315C79.0077 58.1517 80.809 56.8417 82.3799 55.9053C86.2844 58.3155 89.2012 59.9274 91.028 61.0225L86.837 58.8272C85.4144 58.0545 83.8997 57.2 82.3851 56.2686C82.1957 56.2686 81.9706 56.5194 81.7403 56.6473L74.5455 61.3551L80.0363 57.5991L79.8521 57.7014ZM89.7333 52.8094C87.2566 51.3817 84.7236 49.7698 82.2367 48.2039L64.086 60.3112L52.5877 68.0586L52.4188 68.2019C52.4649 66.6667 52.5212 65.1572 52.6235 63.7653C53.2529 58.6174 54.2815 53.3723 56.272 48.6235C57.3569 46.1724 58.1347 44.5298 58.6362 43.445C59.2605 42.2936 59.9206 41.1678 60.6319 40.0676C63.5302 35.3777 67.1086 31.144 71.2501 27.5049C72.0431 26.7602 72.8992 26.0856 73.8087 25.4887C79.4376 21.5894 81.2132 20.566 85.1023 18.5908C85.9947 18.2217 86.8511 17.7711 87.6609 17.245C87.6967 17.245 87.7018 17.2091 87.7018 17.1989C88.3824 16.9328 88.9862 16.6872 89.2677 16.5644C90.8335 15.8531 90.5316 15.8275 88.9862 16.2625C89.5952 15.981 90.2399 15.6944 90.8284 15.4539C92.1077 15.019 93.0442 14.671 92.4147 14.7375C90.8131 14.9525 93.9192 13.9085 96.616 13.2484C95.3007 13.4576 93.9974 13.736 92.7115 14.0825C91.2527 14.3744 89.8189 14.7798 88.4233 15.2953C90.4344 14.4356 91.7239 14.1746 92.5683 13.8574C93.4126 13.5401 93.8834 13.3457 94.4002 13.1614C95.4237 12.7009 96.7439 12.3222 102.076 11.5956C100.305 11.6621 98.3967 12.0408 98.494 11.9947C99.7939 11.5778 101.121 11.2496 102.465 11.0122C102.711 11.0122 103.012 11.0122 103.406 11.0122C105.563 10.9235 107.722 10.9867 109.869 11.2016C110.571 11.2527 111.2 11.309 111.794 11.3704H111.717C111.461 11.4472 112.776 11.6263 111.599 11.6365C106.482 11.7389 109.337 11.8463 114.669 12.6241C113.159 12.4545 111.639 12.3964 110.12 12.4501C112.679 12.532 114.987 13.0591 117.796 13.5094C120.534 14.0928 124.837 15.1623 126.418 15.935C133.675 18.7955 142.062 23.7387 148.085 30.4371C152.265 34.7843 155.697 39.7935 158.242 45.2616C157.925 45.0262 156.942 43.4449 156.932 43.8032C156.804 44.2023 158.288 46.285 160.617 54.2064L159.834 52.7787C161.271 57.8294 162.009 63.0531 162.029 68.3042C162.071 68.6441 162.071 68.9878 162.029 69.3277L161.988 69.7473L161.957 70.1516L161.185 70.3972C159.987 70.7144 158.774 70.9959 157.572 71.2466C155.121 71.6816 154.287 71.9323 152.67 72.1677L153.181 72.224C148.288 72.5237 143.376 72.2351 138.551 71.3643C130.364 70.0032 117.059 65.7917 107.029 61.4677C105.407 60.7922 103.11 59.7381 101.16 58.7914C98.5912 57.5462 96.0514 56.2413 93.5405 54.8767L89.7333 52.8094ZM46.5647 82.9241L47.5114 82.31L51.4056 79.7156C51.5796 81.1535 51.7485 82.484 51.9173 83.707L46.5647 87.2481C46.5613 85.8187 46.5664 84.3773 46.5801 82.9241H46.5647ZM79.586 13.0079L77.2986 14.1235L75.0777 15.4795C73.4535 16.4015 71.8958 17.436 70.416 18.5754C78.7109 11.9231 89.2421 8.68901 94.0574 7.89585C92.0105 8.48433 90.0148 8.95511 88.0344 9.62546C86.0899 10.4186 84.043 11.0532 81.9962 12.0408C78.8536 13.4541 75.812 15.0818 72.8927 16.9123L77.2883 14.1849L79.8469 12.9158L79.586 13.0079ZM71.9102 24.6853C70.7119 25.5923 69.5671 26.5679 68.4817 27.6073C66.5371 29.2089 65.0634 31.2456 63.3287 33.0622C60.719 36.3548 58.4474 39.9019 56.5484 43.6496C55.9292 44.9341 55.3612 45.8296 54.7625 46.9093L55.2742 45.6351C59.1837 37.3197 64.9252 29.7718 72.3144 24.2555L71.9102 24.6853ZM49.7937 51.4943C48.5042 56.2686 47.4193 61.1248 47.3016 66.0271L47.1379 68.6727C47.1379 69.4351 47.1021 70.2078 47.0867 70.9447L46.9281 75.1152C46.8206 77.1621 46.6876 78.554 46.5596 77.8325C46.5238 73.0069 46.4215 67.9716 46.8462 62.4809C46.7643 63.8574 46.8155 64.5022 46.795 65.2749L46.9383 62.7982L47.3016 60.5415C47.5421 59.1035 47.7161 57.7782 47.9566 56.5859C48.3711 55.5625 48.5963 55.2042 49.154 53.5156C49.328 53.0755 49.5788 51.8781 50.0444 50.65L51.293 47.3442C51.4005 47.073 51.5284 46.8325 51.6359 46.5511C50.9962 48.1835 50.3822 49.8312 49.8193 51.4943H49.7937ZM56.6917 36.721L55.9138 37.9849C55.4738 38.6706 55.0849 39.3921 54.6857 40.1034C55.3407 38.9418 56.0111 37.8212 56.7121 36.7158L56.6917 36.721ZM53.3962 42.5648C53.2478 42.8667 53.1045 43.1686 52.9612 43.4705C53.125 43.1584 53.2734 42.8616 53.4218 42.5597L53.3962 42.5648ZM60.504 31.4196C60.6933 31.1944 60.898 30.9846 61.0924 30.7646C60.4892 31.4528 59.9222 32.1719 59.3935 32.9189L57.669 35.2114C58.5594 33.9014 59.4805 32.6375 60.504 31.4196ZM111.753 6.65237C113.168 6.69467 114.577 6.84522 115.969 7.10269C116.66 7.21526 117.351 7.31249 118.042 7.40972L117.683 7.37901C116.547 7.31761 114.854 6.96452 112.802 6.83147C111.625 6.72401 110.448 6.64726 109.271 6.61144C109.178 6.60145 109.087 6.57907 109 6.54491L111.753 6.65237ZM122.499 10.9048C130.947 13.0681 138.829 17.0285 145.608 22.5157C152.14 27.8898 157.505 34.5417 161.374 42.0633C162.909 44.7857 164.153 48.3575 165.166 50.9775C165.918 53.6793 166.46 55.4345 166.409 54.6004C166.358 53.7663 167.269 55.8644 168.072 63.9035C168.134 65.8787 168.333 67.9972 168.333 70.1106V70.3665C168.289 70.5722 168.26 70.7808 168.246 70.9908L168.077 73.0376L167.996 74.0969V74.363C167.955 74.4244 167.827 74.4295 167.75 74.4653L167.208 74.6342L165.053 75.2943L162.776 75.806C163.82 75.4865 164.845 75.109 165.846 74.6751C166.496 74.3169 167.238 74.2402 167.463 73.8308C167.463 72.6846 167.53 71.7839 167.648 69.8855C167.714 69.4198 167.648 67.6595 167.576 66.3034C167.551 64.318 167.365 62.3379 167.018 60.3828L166.506 57.1232C166.276 56.0383 165.938 54.9791 165.667 53.9352L164.818 50.9314L163.794 48.3728C163.368 47.1621 162.855 45.9837 162.259 44.8471C161.824 44.0795 161.108 42.8002 160.514 41.5772C157.554 35.969 153.777 30.8316 149.308 26.3331C147.189 24.4244 145.265 22.5566 143.28 21.2568L140.598 19.3481L138.229 18.0125C135.461 16.4057 134.079 16.0578 135.322 16.8509C135.936 17.291 135.476 17.1835 134.376 16.7946C131.057 15.1408 127.611 13.7581 124.07 12.66C118.319 11.0391 112.364 10.2617 106.39 10.3521L106.032 10.3982C106.431 10.3316 106.82 10.2651 107.234 10.1883C99.4714 10.2805 94.2314 11.57 89.0425 13.0898C88.9965 12.9567 90.3423 12.2762 88.6383 12.7828C83.9714 13.8062 75.6815 18.0739 70.5695 22.3621C68.2923 24.0508 66.6446 25.7855 65.1094 27.0802C63.7449 28.5539 62.6242 29.7258 61.7474 30.5957C59.4525 33.0954 57.4412 35.8412 55.7501 38.7832C54.5322 40.5998 53.7032 42.6364 52.6798 44.5861H52.6081C55.2577 38.5196 58.9366 32.9571 63.4822 28.1446C63.1189 28.5283 62.776 28.9121 62.4178 29.2959C65.8367 25.5351 69.6739 22.177 73.8547 19.2867C76.3393 17.6763 78.9235 16.2252 81.5919 14.9422C87.8269 11.9252 94.5408 10.0203 101.431 9.31331C108.487 8.62359 115.61 9.16906 122.478 10.9252L122.499 10.9048ZM43.1362 70.0646C43.1669 67.6134 43.387 64.8706 43.5661 62.3581C44.0062 59.8558 44.3541 57.5019 44.7993 55.7057C45.7255 52.5331 46.2884 50.8956 46.0019 52.5177C45.6812 53.6606 45.3793 54.8085 45.0961 55.9616C44.6919 58.4844 44.1904 61.043 44.0215 63.7448L43.8373 67.9819C43.7452 69.6091 43.8373 71.3439 43.8117 73.0991L43.6889 70.3614C43.6889 73.8615 43.6428 76.809 43.6275 79.296C43.4842 80.606 43.3563 81.1893 43.2386 83.2874L43.1925 84.6383C43.1925 84.7867 43.1925 84.9453 43.1925 85.104C43.2744 85.104 43.4381 84.9658 43.561 84.8993L44.3746 84.3876C44.3746 85.063 44.3746 85.7129 44.4053 86.4344L44.4411 84.3313L45.5515 83.6098C45.5515 84.0601 45.5771 84.5462 45.5925 85.0784C45.5925 85.9227 45.6283 86.8848 45.6744 87.8673L43.2232 89.4843C43.2232 89.2387 43.1874 88.9726 43.1874 88.7474C43.0544 82.4226 43.1362 76.2461 43.1362 70.0646ZM58.0426 133.605C56.5504 132.023 55.1543 130.354 53.8619 128.605C51.6499 125.738 49.6506 122.712 47.8799 119.553C45.091 114.144 42.7627 108.336 41.509 102.477C40.9563 100.481 40.9972 98.8948 40.7567 97.1652L41.1354 99.1097C43.3555 112.276 49.4648 124.477 58.6771 134.142L58.0426 133.605ZM77.4879 144.996C75.5331 144.054 73.5835 142.662 71.4496 141.414C69.4437 139.986 67.3559 138.502 65.4574 136.921C63.6561 135.217 61.7065 133.753 60.289 132.049C56.5862 128.24 53.4435 123.924 50.9553 119.23C48.9236 115.247 47.1876 111.12 45.7614 106.883L44.6867 102.707L44.175 100.614L43.8578 98.4803L43.9294 98.4496C45.1612 105.416 47.5424 112.129 50.9758 118.315C50.4078 117.291 49.8602 116.268 49.3945 115.178C48.1306 112.793 47.3119 110.265 46.3959 107.778C44.6892 102.416 43.6578 96.862 43.3256 91.2446L45.7921 89.6122C45.8279 90.1239 45.8637 90.5896 45.8995 91.0501C45.9274 92.3797 46.0782 93.7039 46.3498 95.0057C46.5136 95.5942 46.6569 96.3311 46.8615 97.4415C47.0699 98.9968 47.3863 100.536 47.8082 102.047C48.6563 105.543 49.8564 108.945 51.3903 112.199C52.2551 113.76 51.6922 112.251 51.7587 112.015L53.1966 114.855C52.5365 113.458 51.8969 112.194 51.3698 110.987L50.111 107.517C49.2257 105.378 48.8931 103.342 48.3455 101.377L47.885 100.353C47.1648 96.6217 46.7489 92.8379 46.6415 89.0391C57.8993 81.568 59.1633 80.5701 53.5804 84.0703C51.8815 85.1296 53.2683 84.0703 53.2427 84.014L62.6941 77.7301L68.8347 74.0099L77.4572 68.0586L81.7659 65.0907L82.252 64.758L82.293 64.7222L82.3748 64.6403C82.4334 64.5826 82.4949 64.528 82.559 64.4766H82.6256C82.7081 64.512 82.7967 64.5311 82.8865 64.5329C82.9173 64.5329 82.9787 64.5329 82.9684 64.4971C83.0748 64.5444 83.1865 64.5787 83.301 64.5994C83.4443 64.5994 83.2396 64.451 83.0861 64.3077C82.9682 64.0558 82.793 63.835 82.5744 63.663C82.3972 63.7132 82.2256 63.7818 82.0627 63.8676L81.9092 63.9444C81.7903 63.9996 81.6771 64.0664 81.5714 64.144L79.9749 65.1674L73.0155 69.7217L53.9028 82.3867L52.0913 83.5842C52.1374 82.7654 52.1885 81.3377 52.2192 80.0021C52.2192 79.7207 52.2192 79.4137 52.2192 79.1271L62.776 72.1524L75.615 63.6834L81.2439 59.9018C81.6288 59.6131 82.0323 59.3498 82.4516 59.1138L84.9539 60.5619L88.5359 62.5269C91.0075 63.8574 93.5405 65.1521 96.1094 66.3955C101.227 68.903 106.548 71.1801 111.799 73.1349C125.712 78.2521 140.741 81.8341 154.844 80.2989C157.61 80.007 160.348 79.4937 163.032 78.7638C164.127 78.4005 165.222 78.032 165.867 77.771C166.512 77.5101 166.68 77.3873 166.271 77.4384C165.862 77.4896 166.138 77.3821 167.382 76.8499C167.643 76.7323 167.98 76.6043 168.344 76.461V79.0708C167.062 79.4561 165.761 79.7687 164.444 80.0073C159.276 81.6089 152.491 82.3151 146.908 82.0541C140.256 81.7722 133.647 80.8415 127.176 79.2755C117.247 76.796 107.585 73.3475 98.3302 68.9797L94.8608 67.6595C94.4105 67.506 94.8608 67.8232 95.7614 68.3247C98.5093 69.8855 103.8 72.4185 104.415 72.8278C105.653 73.7694 113.666 76.9216 119.316 78.6973C122.44 79.7706 125.647 80.5836 128.905 81.1279C130.952 81.4298 134.176 81.9416 137.922 82.3305C139.457 82.5096 144.978 83.052 146.473 83.0366C151.399 83.3608 156.346 83.0165 161.18 82.0132C162.362 81.7317 163.539 81.5271 164.664 81.1382L166.86 80.4525C167.371 80.2682 167.847 80.0738 168.338 79.8793V82.0439V87.9901L168.042 93.8544C167.233 101.656 164.929 109.23 161.256 116.16C160.161 118.207 158.872 120.09 157.638 122.019C157.826 121.747 157.997 121.463 158.15 121.17C149.578 134.234 136.331 143.521 121.127 147.124C121.946 147.048 121.352 147.303 119.756 147.79C117.288 148.318 114.792 148.706 112.28 148.951C110.714 149.33 109.721 149.647 107.817 150C106.518 150.241 107.188 150.333 109.905 150.266C111.256 150.179 113.15 150.297 115.504 149.852L119.428 149.253C120.851 148.972 122.376 148.511 124.034 148.091C132.461 145.706 140.302 141.6 147.061 136.03C151.303 132.366 155.689 127.72 158.283 123.78C166.174 112.286 170.319 98.0044 169.423 82.2435C169.423 81.307 169.423 80.3757 169.423 79.4444L170.754 78.9071C170.754 81.0614 170.754 83.2516 170.79 85.365C170.89 89.5324 170.692 93.7016 170.196 97.8407C170.087 99.4432 169.825 101.032 169.413 102.584C167.503 110.639 164.025 118.24 159.179 124.952C157.162 127.718 154.969 130.352 152.613 132.837C150.346 134.915 148.52 136.895 146.826 138.139C143.571 140.774 142.138 141.982 143.842 140.994C146.232 139.617 139.181 145.477 131.873 148.383L127.12 150.154C125.676 150.635 124.351 150.926 123.19 151.264C121.388 151.808 119.552 152.23 117.694 152.528C114.951 153.04 113.943 153.362 113.492 153.475C113.15 153.598 115.028 153.577 113.385 153.751C109.803 154.079 109 154.263 110.069 154.299C112.701 154.392 115.336 154.221 117.934 153.787C115.799 154.264 113.632 154.584 111.451 154.744L114.188 154.636L116.885 154.283C118.692 154.007 120.585 153.879 122.56 153.306C125.47 152.644 128.331 151.781 131.121 150.722C131.06 152.723 131.014 154.861 130.988 157.169C130.988 159.006 130.988 160.89 130.988 162.762V164.139L131.029 164.19V164.252V164.282L130.645 164.518L128.639 165.725L108.554 177.761L107.301 178.518L107.26 178.554L107.188 178.615L107.07 178.59L104.645 177.167L98.5042 173.519C93.6122 170.602 88.3875 167.47 83.869 164.661L83.3573 164.344C83.301 164.303 83.3573 164.344 83.3164 164.308V164.277L83.2857 164.221L83.3113 164.149C83.3113 164.093 83.3113 164.4 83.3113 163.218V158.218C83.3113 155.905 83.2755 153.557 83.2601 151.208C85.1176 151.781 86.4635 152.124 85.6345 151.755C84.5701 151.244 85.1739 151.377 86.5146 151.781C87.8553 152.185 90.0199 152.589 91.9696 153.04C90.0404 152.482 88.2494 152.108 86.4328 151.448C85.4093 151.054 84.3859 150.66 83.2499 150.236C83.2499 150.2 83.2499 150.164 83.2499 150.128C86.7551 151.377 87.8553 151.566 89.1244 151.745C90.7005 151.929 92.5222 152.605 100.044 153.546L95.0296 152.712C97.1072 152.825 99.0671 153.035 101.053 153.04L107.193 152.809C96.749 152.625 89.6003 150.763 82.8149 148.051C82.8712 147.923 84.8004 148.445 82.6153 147.539C81.1416 146.904 79.4376 145.937 77.4981 144.996H77.4879ZM135.476 169.184L137.564 167.921L137.497 147.964L137.722 147.861C137.722 154.572 137.705 161.28 137.671 167.987L134.468 169.891C134.417 169.921 134.381 169.891 134.319 169.916L135.476 169.184ZM120.181 178.467L115.186 181.486C119.981 178.375 124.95 175.371 127.324 174.133L121.475 177.889L116.614 180.719L120.309 178.411L120.181 178.467ZM81.4844 155.189C81.4844 158.193 81.4844 161.258 81.4844 164.205C81.4482 164.477 81.3848 164.745 81.2951 165.004L81.2132 164.733L81.3309 150.609L81.4281 150.645C81.4537 152.16 81.4844 153.664 81.4844 155.189ZM81.3616 149.488V149.458L81.4486 149.488V149.524L81.3616 149.488ZM78.4653 164.144V165.546L78.3937 165.572V164.165L78.4653 164.144ZM78.2094 164.19V167.092L88.6127 173.365C93.1721 176.139 98.8982 179.982 96.0428 178.595C93.9038 177.572 90.8642 175.944 88.0703 174.501L85.5782 172.961L85.9876 173.012L80.3024 169.804L83.6234 171.932C83.6644 172.106 83.8383 172.321 83.7002 172.347C83.3113 172.413 84.5036 173.462 80.328 171.201C78.8644 170.413 76.3877 169 75.5383 168.591C75.5365 168.452 75.5246 168.313 75.5024 168.176C75.3649 167.056 75.317 165.927 75.3592 164.799C76.3672 164.584 77.2986 164.369 78.1992 164.19H78.2094ZM31.6891 188.753C34.0225 186.225 36.2587 183.605 38.9146 181.409C41.3708 178.994 44.2211 177.055 46.9639 174.992C52.7003 171.252 58.7334 167.828 65.2681 165.725L64.4954 166.119L61.3176 167.24C60.2942 167.685 59.2707 168.192 58.278 168.673C56.6149 169.532 54.8597 170.208 53.2939 171.231L48.5144 174.158C47.1737 174.972 45.9558 176.021 44.697 176.937C43.4381 177.853 42.0974 178.743 40.9768 179.864C38.6843 182.029 36.2178 183.994 34.2426 186.368C32.8405 187.97 31.5765 188.962 30.4456 190.405C30.8123 189.823 31.2265 189.272 31.684 188.758L31.6891 188.753ZM60.8571 254.764L48.5758 254.693L58.0835 254.616H57.7867H45.0398C57.5155 254.416 70.1959 254.396 76.0295 254.56L60.8571 254.764ZM36.709 248.005H25.6917H24.3203C23.8649 248.005 23.3429 248.005 23.1792 248.005C22.6777 247.991 22.1781 247.938 21.685 247.846C20.707 247.645 19.7739 247.267 18.9319 246.73C17.2049 245.645 15.9164 243.985 15.2936 242.043C15.1536 241.56 15.0493 241.067 14.9815 240.569C14.9087 239.956 14.8967 239.337 14.9456 238.722L15.1964 233.666C15.2225 232.228 15.3714 230.795 15.6416 229.383L16.2915 225.074C16.8032 222.214 17.6885 219.41 18.3793 216.59C19.4437 213.893 20.2675 211.12 21.4496 208.571L23.2815 204.821L24.1771 202.978L25.2414 201.269C29.3874 194.09 34.706 187.656 40.9768 182.233C47.2193 176.756 54.2572 172.258 61.8498 168.893L66.4246 167.24C69.9401 166.217 72.5652 165.464 74.8423 164.912C74.8423 166.334 74.8065 167.706 74.7912 169.005L81.2388 172.961L90.506 178.426L89.1039 177.725L93.2949 180.284C93.7173 180.751 94.1796 181.181 94.6765 181.568C95.1013 181.89 96.9742 183.103 97.7776 183.579L102.015 186.081L107.168 189.203L117.689 182.986L121.992 180.376L130.441 175.151L140.061 169.287C140.061 167.752 140.035 166.242 140.025 164.758L139.749 146.797C140.189 146.556 140.629 146.285 141.074 146.045C141.1 148.736 141.166 151.126 141.212 153.792C141.274 158.909 141.33 164.2 141.402 170.039L135.026 173.984C134.585 174.332 133.618 175.054 133.112 175.52C132.876 175.729 133.229 175.617 133.833 175.32L135.44 174.501L137.487 173.427C139.232 172.475 140.757 171.651 141.161 171.513C141.673 171.307 142.17 171.068 142.65 170.796C142.737 169.323 142.763 166.657 142.773 164.067L145.618 164.799C147.987 165.592 150.137 166.431 151.36 166.887C162.285 171.129 174.152 179.639 182.784 189.914C188.486 196.876 192.983 204.742 196.089 213.187C195.736 212.762 194.6 210.224 194.61 210.726C194.61 210.977 194.902 211.985 195.721 214.385L196.442 216.431L197.123 219.164C197.568 221.211 198.417 223.647 198.74 226.743L197.982 224.45L198.929 230.969C199.18 233.139 199.154 235.309 199.282 237.366C199.306 237.881 199.33 238.393 199.354 238.901L199.384 239.623L199.349 240.068C199.325 240.628 199.231 241.184 199.067 241.721C198.805 242.638 198.388 243.503 197.834 244.279C197.134 245.225 196.249 246.018 195.233 246.612C194.217 247.206 193.091 247.587 191.924 247.733C191.637 247.79 191.34 247.733 191.049 247.79C190.757 247.846 190.025 247.79 189.513 247.79H186.259L179.852 247.831C175.615 247.871 174.187 248.061 171.496 248.179L172.294 248.276L148.622 248.097C135.481 247.815 114.137 247.733 97.624 247.948L87.8502 247.984L36.709 248.005ZM205.832 242.903C205.187 245.947 203.631 248.723 201.372 250.864C199.113 253.004 196.257 254.407 193.182 254.887C193.976 254.514 193.454 254.662 191.161 254.682L178.107 254.611L158.36 254.647L94.1597 254.575C94.0505 254.568 93.9423 254.55 93.8373 254.519L97.1021 254.488L177.544 254.365L184.002 254.442C187.19 254.36 190.562 254.662 193.582 254.186C196.667 253.618 199.492 252.082 201.646 249.801C201.111 250.084 200.61 250.427 200.152 250.824C198.33 252.156 196.231 253.059 194.011 253.465C192.828 253.662 191.627 253.725 190.429 253.654L186.448 253.48C188.915 253.413 190.926 253.429 192.174 253.296C193.258 253.167 194.324 252.926 195.357 252.574C197.397 251.901 199.268 250.796 200.843 249.335C202.037 248.156 203.006 246.768 203.703 245.241C204.792 242.705 205.16 239.918 204.768 237.187C204.599 234.009 204.481 230.667 203.826 227.556L203.074 223.038L201.989 219.108C201.329 216.703 200.802 214.779 200.275 213.724C199.763 212.532 198.955 210.557 198.264 208.669C194.658 200.062 189.643 192.117 183.424 185.16C180.707 181.901 177.688 179.378 175.093 177.055C172.361 174.911 169.879 173.191 167.929 171.861C163.835 169.532 161.993 168.627 163.759 169.916C164.961 170.822 163.4 170.029 160.576 168.622C157.638 167.424 153.529 165.413 149.502 164.159C146.943 163.254 144.728 162.624 142.747 162.113C142.747 161.089 142.747 160.107 142.747 159.185C152.583 161.588 161.89 165.786 170.201 171.569C172.826 173.544 175.723 175.535 178.133 177.914C179.366 179.066 180.65 180.12 181.745 181.251L184.77 184.526C195.828 196.582 203.468 212.343 205.663 230.985L206.001 237.033C206.241 238.987 206.184 240.966 205.832 242.903V242.903ZM0.96037 242.217C0.823425 241.047 0.780645 239.868 0.832441 238.691L1.10365 232.955C1.15994 231.998 1.18041 231.036 1.2674 230.079L1.65631 227.203L2.52111 221.518C4.2149 214.083 6.43064 206.873 9.65447 200.732C10.8928 198.25 12.3922 195.431 12.2131 195.968C11.5837 197.503 11.0003 199.263 10.2992 201.085C9.51761 203.013 8.85958 204.989 8.32912 207C8.07838 207.906 7.56666 209.441 6.75303 211.754C5.93939 214.067 5.26904 217.307 4.1535 221.436L2.96119 229.01C2.55182 231.537 2.60299 234.127 2.40854 236.685L2.31131 238.609L2.26525 239.582L2.31643 240.81C2.58566 245.792 4.63176 250.512 8.08349 254.114C10.3521 256.518 13.1578 258.351 16.271 259.462C17.8278 260.019 19.4435 260.395 21.0863 260.583C21.8846 260.654 22.7749 260.69 23.5016 260.711H39.7947C57.2853 260.711 74.044 261.176 67.1921 261.539L63.0626 261.626L31.336 261.959L26.7305 261.806L24.0287 261.724H23.2457L22.1558 261.657C21.3807 261.615 20.6096 261.52 19.8479 261.371C14.7781 260.517 10.1591 257.937 6.7735 254.068C6.73256 254.14 5.45838 252.856 6.88096 254.539C9.33721 257.287 10.5756 257.968 9.29115 257.139C8.1085 256.216 7.02314 255.176 6.05197 254.033C4.07257 251.666 2.60078 248.917 1.72795 245.958C1.36862 244.734 1.11187 243.483 0.96037 242.217V242.217ZM100.776 259.375C99.7528 259.201 91.3862 259.053 86.8728 258.863C85.4144 258.807 84.6162 258.725 85.2967 258.664L90.593 258.341L134.411 258.08C143.653 258.014 151.206 257.876 162.587 257.947H187.124L190.194 258.229C191.419 258.348 192.653 258.348 193.878 258.229C196.813 257.954 199.641 256.99 202.132 255.414C199.13 257.554 195.58 258.797 191.898 258.996C190.875 259.063 190.179 259.042 189.385 259.053H187.032H182.211C175.697 259.053 168.871 259.053 162.06 258.93C160.013 258.889 152.286 258.93 150.137 258.986C144.881 259.124 140.342 259.288 137.426 259.462C134.637 259.626 130.594 259.702 123.517 259.651C115.145 259.621 102.92 259.733 100.771 259.375H100.776ZM95.4748 188.179C90.0199 184.915 84.13 181.563 79.2482 178.349C78.2708 177.705 77.1604 176.927 77.3907 176.993C78.7774 177.392 80.461 177.96 82.2162 178.605C82.9838 178.882 84.698 179.864 87.8451 181.778L107.173 193.481L116.348 187.985C123.215 183.861 130.031 180.309 127.529 182.244C127.283 182.433 126.582 182.888 125.953 183.267L112.894 191.49L107.173 194.663L104.926 193.215L98.3712 189.285C98.3353 189.356 97.7929 189.142 98.3712 189.556C100.265 190.933 99.6658 190.692 95.4748 188.179ZM50.9553 118.304C51.7024 119.665 52.4905 121.011 53.3246 122.398C52.47 121.062 51.7178 119.681 50.9604 118.309L50.9553 118.304ZM83.4904 138.405C77.7288 135.731 72.4849 132.06 68.0006 127.561L69.7354 128.825L68.1286 127.418C64.1699 123.238 60.8396 118.504 58.2422 113.366C55.733 108.241 54.036 102.756 53.212 97.1089L53.4781 98.2807C53.8567 100.046 54.3736 101.791 54.7983 103.546C55.3561 105.266 56.0315 106.939 56.6047 108.612C61.6605 121.088 72.0483 131.589 83.7258 137.238L85.6856 138.261L87.5483 138.998L90.7005 140.288C92.5938 140.861 93.9192 141.311 94.5742 141.572C95.8944 142.084 94.4974 142.048 89.6668 140.794C88.1828 140.242 85.3223 139.443 83.4955 138.41L83.4904 138.405Z" fill="#C4C4C4" fill-opacity="0.31"/>
</svg>