<svg width="94" height="96" viewBox="0 0 94 96" fill="none" xmlns="http://www.w3.org/2000/svg">
<path d="M47 64.7439C71.8528 64.7439 92 57.0513 92 47.5621C92 38.0728 71.8528 30.3802 47 30.3802C22.1472 30.3802 2 38.0728 2 47.5621C2 57.0513 22.1472 64.7439 47 64.7439Z" stroke="#61DAFB" stroke-width="3"/>
<path d="M32.1201 56.153C44.5465 77.6761 61.2821 91.2778 69.5 86.5332C77.7179 81.7886 74.3063 60.4943 61.8799 38.9711C49.4535 17.448 32.7179 3.84628 24.5 8.59091C16.2821 13.3355 19.6937 34.6298 32.1201 56.153Z" stroke="#61DAFB" stroke-width="3"/>
<path d="M32.1201 38.9712C19.6937 60.4944 16.2821 81.7886 24.5 86.5333C32.7179 91.2779 49.4535 77.6762 61.8799 56.153C74.3063 34.6299 77.7179 13.3356 69.5 8.59098C61.2821 3.84635 44.5465 17.448 32.1201 38.9712Z" stroke="#61DAFB" stroke-width="3"/>
<path d="M46.6957 53.6773C49.6493 53.6773 52.0436 51.283 52.0436 48.3295C52.0436 45.376 49.6493 42.9817 46.6957 42.9817C43.7422 42.9817 41.3479 45.376 41.3479 48.3295C41.3479 51.283 43.7422 53.6773 46.6957 53.6773Z" fill="#61DAFB"/>
</svg>