<svg width="1314" height="276" viewBox="0 0 1314 276" fill="none" xmlns="http://www.w3.org/2000/svg">
<g clip-path="url(#clip0_203_5)">
<path d="M136 0C60.8893 0 0 61.7847 0 138C0 214.215 60.8893 276 136 276C211.111 276 272 214.215 272 138C272 61.7847 211.111 0 136 0Z" fill="#D9D9D9"/>
<path d="M139.208 141.255V272.707C209.999 271.004 267.076 213.087 268.754 141.255H139.208Z" fill="#FF0000" stroke="white" stroke-width="10"/>
<path d="M139.208 134.745H268.754C267.076 62.913 209.999 4.99594 139.208 3.29307V134.745Z" fill="#27AE61" stroke="white" stroke-width="10"/>
<path d="M132.792 134.745V3.29307C62.0013 4.99594 4.92361 62.913 3.24542 134.745H132.792Z" fill="#F1C40F" stroke="white" stroke-width="10"/>
<path d="M132.792 141.255H3.24542C4.92361 213.087 62.0013 271.004 132.792 272.707V141.255Z" fill="#297FB8" stroke="white" stroke-width="10"/>
<path d="M136 83.3207C106.239 83.3207 82.1132 107.801 82.1132 138C82.1132 168.198 106.239 192.679 136 192.679C165.761 192.679 189.887 168.198 189.887 138C189.887 107.801 165.761 83.3207 136 83.3207Z" fill="#3F3F3F" stroke="white" stroke-width="12"/>
</g>
<path d="M412.232 233C410.952 233 409.843 232.552 408.904 231.656C408.008 230.76 407.56 229.651 407.56 228.328V218.664C407.56 217.384 408.008 216.296 408.904 215.4C409.843 214.461 410.952 213.992 412.232 213.992H417.224C417.907 213.992 418.461 213.779 418.888 213.352C419.357 212.883 419.592 212.328 419.592 211.688V209.32C419.592 208.68 419.357 208.147 418.888 207.72C418.461 207.251 417.907 207.016 417.224 207.016H410.312L411.656 201H420.936C422.216 201 423.304 201.469 424.2 202.408C425.139 203.304 425.608 204.392 425.608 205.672V233H412.232ZM415.88 226.984H419.592V220.008H415.88C415.24 220.008 414.685 220.243 414.216 220.712C413.789 221.139 413.576 221.672 413.576 222.312V224.68C413.576 225.32 413.789 225.875 414.216 226.344C414.685 226.771 415.24 226.984 415.88 226.984ZM441.413 233V201H466.821C468.101 201 469.189 201.469 470.085 202.408C470.981 203.304 471.429 204.392 471.429 205.672V233H465.477V209.32C465.477 208.68 465.242 208.147 464.773 207.72C464.304 207.251 463.749 207.016 463.109 207.016H459.461V233H453.445V209.32C453.445 208.68 453.21 208.147 452.741 207.72C452.272 207.251 451.717 207.016 451.077 207.016H447.429V233H441.413ZM480.17 233C478.89 233 477.78 232.552 476.842 231.656C475.946 230.717 475.498 229.608 475.498 228.328V205.608C475.498 204.328 475.946 203.24 476.842 202.344C477.78 201.448 478.89 201 480.17 201H488.874C490.196 201 491.306 201.448 492.202 202.344C493.098 203.24 493.546 204.328 493.546 205.608V215.336C493.546 216.616 493.098 217.725 492.202 218.664C491.306 219.56 490.196 220.008 488.874 220.008H481.514V224.68C481.514 225.32 481.727 225.875 482.154 226.344C482.623 226.771 483.199 226.984 483.882 226.984H492.202L493.546 233H480.17ZM481.514 213.992H485.226C485.866 213.992 486.399 213.779 486.826 213.352C487.295 212.883 487.53 212.328 487.53 211.688V209.32C487.53 208.68 487.295 208.147 486.826 207.72C486.399 207.251 485.866 207.016 485.226 207.016H483.882C483.199 207.016 482.623 207.251 482.154 207.72C481.727 208.147 481.514 208.68 481.514 209.32V213.992ZM497.851 233V201H523.259C524.539 201 525.627 201.469 526.523 202.408C527.419 203.304 527.867 204.392 527.867 205.672V233H521.915V209.32C521.915 208.68 521.68 208.147 521.211 207.72C520.741 207.251 520.187 207.016 519.547 207.016H515.899V233H509.883V209.32C509.883 208.68 509.648 208.147 509.179 207.72C508.709 207.251 508.155 207.016 507.515 207.016H503.867V233H497.851ZM536.494 233C535.171 233 534.062 232.552 533.166 231.656C532.27 230.717 531.822 229.608 531.822 228.328V205.672C531.822 204.392 532.27 203.304 533.166 202.408C534.062 201.469 535.171 201 536.494 201H545.198C546.478 201 547.566 201.469 548.462 202.408C549.358 203.304 549.806 204.392 549.806 205.672V228.328C549.806 229.608 549.358 230.717 548.462 231.656C547.566 232.552 546.478 233 545.198 233H536.494ZM540.142 226.984H541.486C542.126 226.984 542.681 226.771 543.15 226.344C543.619 225.875 543.854 225.32 543.854 224.68V209.32C543.854 208.68 543.619 208.147 543.15 207.72C542.681 207.251 542.126 207.016 541.486 207.016H540.142C539.502 207.016 538.947 207.251 538.478 207.72C538.051 208.147 537.838 208.68 537.838 209.32V224.68C537.838 225.32 538.051 225.875 538.478 226.344C538.947 226.771 539.502 226.984 540.142 226.984ZM553.06 233V201H566.436C567.716 201 568.804 201.469 569.7 202.408C570.639 203.304 571.108 204.392 571.108 205.672V212.648L565.092 211.304V209.384C565.092 208.744 564.857 208.189 564.388 207.72C563.961 207.251 563.428 207.016 562.788 207.016H559.076V233H553.06ZM579.67 249C578.347 249 577.238 248.552 576.342 247.656C575.446 246.76 574.998 245.651 574.998 244.328V237.352L581.014 238.76V240.68C581.014 241.277 581.248 241.811 581.718 242.28C582.187 242.749 582.72 242.984 583.318 242.984H584.726C585.323 242.984 585.856 242.749 586.326 242.28C586.795 241.811 587.03 241.277 587.03 240.68V233H579.67C578.347 233 577.238 232.552 576.342 231.656C575.446 230.76 574.998 229.651 574.998 228.328V201H581.014V224.68C581.014 225.277 581.248 225.811 581.718 226.28C582.187 226.749 582.72 226.984 583.318 226.984H587.03V201H593.046V244.328C593.046 245.651 592.598 246.76 591.702 247.656C590.806 248.552 589.718 249 588.438 249H579.67ZM611.795 249C610.557 249 609.469 248.552 608.531 247.656C607.592 246.76 607.123 245.651 607.123 244.328V237.352L613.139 238.76V240.68C613.139 241.277 613.373 241.811 613.843 242.28C614.312 242.749 614.845 242.984 615.443 242.984H616.851C617.533 242.984 618.088 242.749 618.515 242.28C618.941 241.811 619.155 241.277 619.155 240.68V233H611.795C610.557 233 609.469 232.552 608.531 231.656C607.592 230.76 607.123 229.651 607.123 228.328V205.672C607.123 204.349 607.592 203.24 608.531 202.344C609.469 201.448 610.557 201 611.795 201H625.171V244.328C625.171 245.651 624.723 246.76 623.827 247.656C622.931 248.552 621.821 249 620.499 249H611.795ZM615.443 226.984H616.851C617.533 226.984 618.088 226.749 618.515 226.28C618.941 225.811 619.155 225.277 619.155 224.68V207.016H615.443C614.845 207.016 614.312 207.229 613.843 207.656C613.373 208.083 613.139 208.637 613.139 209.32V224.68C613.139 225.277 613.373 225.811 613.843 226.28C614.312 226.749 614.845 226.984 615.443 226.984ZM633.045 233C631.765 233 630.655 232.552 629.717 231.656C628.821 230.76 628.373 229.651 628.373 228.328V218.664C628.373 217.384 628.821 216.296 629.717 215.4C630.655 214.461 631.765 213.992 633.045 213.992H638.037C638.719 213.992 639.274 213.779 639.701 213.352C640.17 212.883 640.405 212.328 640.405 211.688V209.32C640.405 208.68 640.17 208.147 639.701 207.72C639.274 207.251 638.719 207.016 638.037 207.016H631.125L632.469 201H641.749C643.029 201 644.117 201.469 645.013 202.408C645.951 203.304 646.421 204.392 646.421 205.672V233H633.045ZM636.693 226.984H640.405V220.008H636.693C636.053 220.008 635.498 220.243 635.029 220.712C634.602 221.139 634.389 221.672 634.389 222.312V224.68C634.389 225.32 634.602 225.875 635.029 226.344C635.498 226.771 636.053 226.984 636.693 226.984ZM650.726 233V201H676.134C677.414 201 678.502 201.469 679.398 202.408C680.294 203.304 680.742 204.392 680.742 205.672V233H674.79V209.32C674.79 208.68 674.555 208.147 674.086 207.72C673.616 207.251 673.062 207.016 672.422 207.016H668.774V233H662.758V209.32C662.758 208.68 662.523 208.147 662.054 207.72C661.584 207.251 661.03 207.016 660.39 207.016H656.742V233H650.726ZM689.482 233C688.202 233 687.093 232.552 686.154 231.656C685.258 230.717 684.81 229.608 684.81 228.328V205.608C684.81 204.328 685.258 203.24 686.154 202.344C687.093 201.448 688.202 201 689.482 201H698.186C699.509 201 700.618 201.448 701.514 202.344C702.41 203.24 702.858 204.328 702.858 205.608V215.336C702.858 216.616 702.41 217.725 701.514 218.664C700.618 219.56 699.509 220.008 698.186 220.008H690.826V224.68C690.826 225.32 691.039 225.875 691.466 226.344C691.935 226.771 692.511 226.984 693.194 226.984H701.514L702.858 233H689.482ZM690.826 213.992H694.538C695.178 213.992 695.711 213.779 696.138 213.352C696.607 212.883 696.842 212.328 696.842 211.688V209.32C696.842 208.68 696.607 208.147 696.138 207.72C695.711 207.251 695.178 207.016 694.538 207.016H693.194C692.511 207.016 691.935 207.251 691.466 207.72C691.039 208.147 690.826 208.68 690.826 209.32V213.992ZM716.935 233V186.344L722.951 185V201H730.311C731.591 201 732.679 201.448 733.575 202.344C734.514 203.24 734.983 204.349 734.983 205.672V228.328C734.983 229.608 734.514 230.717 733.575 231.656C732.679 232.552 731.591 233 730.311 233H716.935ZM722.951 226.984H726.599C727.239 226.984 727.794 226.771 728.263 226.344C728.732 225.875 728.967 225.32 728.967 224.68V209.32C728.967 208.68 728.732 208.147 728.263 207.72C727.794 207.251 727.239 207.016 726.599 207.016H722.951V226.984ZM743.545 249C742.222 249 741.113 248.552 740.217 247.656C739.321 246.76 738.873 245.651 738.873 244.328V237.352L744.889 238.76V240.68C744.889 241.277 745.123 241.811 745.593 242.28C746.062 242.749 746.595 242.984 747.193 242.984H748.601C749.198 242.984 749.731 242.749 750.201 242.28C750.67 241.811 750.905 241.277 750.905 240.68V233H743.545C742.222 233 741.113 232.552 740.217 231.656C739.321 230.76 738.873 229.651 738.873 228.328V201H744.889V224.68C744.889 225.277 745.123 225.811 745.593 226.28C746.062 226.749 746.595 226.984 747.193 226.984H750.905V201H756.921V244.328C756.921 245.651 756.473 246.76 755.577 247.656C754.681 248.552 753.593 249 752.312 249H743.545ZM771.156 233V188.2H777.108V205.224H789.012V188.2H794.9V233H789.012V211.176H777.108V233H771.156ZM806.107 233C804.827 233 803.718 232.552 802.779 231.656C801.883 230.76 801.435 229.651 801.435 228.328V218.664C801.435 217.384 801.883 216.296 802.779 215.4C803.718 214.461 804.827 213.992 806.107 213.992H811.099C811.782 213.992 812.336 213.779 812.763 213.352C813.232 212.883 813.467 212.328 813.467 211.688V209.32C813.467 208.68 813.232 208.147 812.763 207.72C812.336 207.251 811.782 207.016 811.099 207.016H804.187L805.531 201H814.811C816.091 201 817.179 201.469 818.075 202.408C819.014 203.304 819.483 204.392 819.483 205.672V233H806.107ZM809.755 226.984H813.467V220.008H809.755C809.115 220.008 808.56 220.243 808.091 220.712C807.664 221.139 807.451 221.672 807.451 222.312V224.68C807.451 225.32 807.664 225.875 808.091 226.344C808.56 226.771 809.115 226.984 809.755 226.984ZM827.981 233C826.701 233 825.613 232.552 824.717 231.656C823.821 230.717 823.373 229.608 823.373 228.328V223.016H829.325V224.68C829.325 225.32 829.559 225.875 830.029 226.344C830.498 226.771 831.053 226.984 831.693 226.984H833.037C833.677 226.984 834.21 226.771 834.637 226.344C835.106 225.875 835.341 225.32 835.341 224.68V222.312C835.341 221.672 835.106 221.139 834.637 220.712C834.21 220.243 833.677 220.008 833.037 220.008H827.981C826.701 220.008 825.613 219.56 824.717 218.664C823.821 217.725 823.373 216.616 823.373 215.336V205.672C823.373 204.392 823.821 203.304 824.717 202.408C825.613 201.469 826.701 201 827.981 201H836.749C838.029 201 839.117 201.469 840.013 202.408C840.909 203.304 841.357 204.392 841.357 205.672V210.984H835.341V209.32C835.341 208.68 835.106 208.147 834.637 207.72C834.21 207.251 833.677 207.016 833.037 207.016H831.693C831.053 207.016 830.498 207.251 830.029 207.72C829.559 208.147 829.325 208.68 829.325 209.32V211.688C829.325 212.328 829.559 212.883 830.029 213.352C830.498 213.779 831.053 213.992 831.693 213.992H836.749C838.029 213.992 839.117 214.461 840.013 215.4C840.909 216.296 841.357 217.384 841.357 218.664V228.584C841.314 229.779 840.845 230.824 839.949 231.72C839.053 232.573 837.986 233 836.749 233H827.981ZM844.56 233V186.344L850.576 185V201H857.936C859.216 201 860.304 201.448 861.2 202.344C862.139 203.24 862.608 204.349 862.608 205.672V228.328C862.608 229.608 862.139 230.717 861.2 231.656C860.304 232.552 859.216 233 857.936 233H844.56ZM850.576 226.984H854.224C854.864 226.984 855.419 226.771 855.888 226.344C856.357 225.875 856.592 225.32 856.592 224.68V209.32C856.592 208.68 856.357 208.147 855.888 207.72C855.419 207.251 854.864 207.016 854.224 207.016H850.576V226.984ZM866.498 233V201H879.874C881.154 201 882.242 201.469 883.138 202.408C884.076 203.304 884.546 204.392 884.546 205.672V212.648L878.53 211.304V209.384C878.53 208.744 878.295 208.189 877.826 207.72C877.399 207.251 876.866 207.016 876.226 207.016H872.514V233H866.498ZM891.932 233C890.609 233 889.5 232.552 888.604 231.656C887.708 230.717 887.26 229.608 887.26 228.328V205.672C887.26 204.392 887.708 203.304 888.604 202.408C889.5 201.469 890.609 201 891.932 201H900.635C901.916 201 903.004 201.469 903.9 202.408C904.796 203.304 905.244 204.392 905.244 205.672V228.328C905.244 229.608 904.796 230.717 903.9 231.656C903.004 232.552 901.916 233 900.635 233H891.932ZM895.58 226.984H896.924C897.564 226.984 898.118 226.771 898.588 226.344C899.057 225.875 899.292 225.32 899.292 224.68V209.32C899.292 208.68 899.057 208.147 898.588 207.72C898.118 207.251 897.564 207.016 896.924 207.016H895.58C894.94 207.016 894.385 207.251 893.916 207.72C893.489 208.147 893.276 208.68 893.276 209.32V224.68C893.276 225.32 893.489 225.875 893.916 226.344C894.385 226.771 894.94 226.984 895.58 226.984Z" fill="white"/>
<path d="M432.8 135C429.8 135 427.25 133.95 425.15 131.85C423.05 129.75 422 127.2 422 124.2V100.95L435.95 104.1V115.65C435.95 117.15 436.45 118.45 437.45 119.55C438.55 120.55 439.8 121.05 441.2 121.05H458.3C459.8 121.05 461.05 120.55 462.05 119.55C463.15 118.45 463.7 117.15 463.7 115.65V89.25C463.7 87.75 463.15 86.5 462.05 85.5C461.05 84.4 459.8 83.85 458.3 83.85H432.8C429.8 83.85 427.25 82.8 425.15 80.7C423.05 78.6 422 76.05 422 73.05V40.8C422 37.8 423.05 35.25 425.15 33.15C427.25 31.05 429.8 30 432.8 30H466.85C469.85 30 472.4 31.05 474.5 33.15C476.6 35.25 477.65 37.8 477.65 40.8V57L463.7 53.7V49.35C463.7 47.85 463.15 46.6 462.05 45.6C461.05 44.5 459.8 43.95 458.3 43.95H441.2C439.8 43.95 438.55 44.5 437.45 45.6C436.45 46.6 435.95 47.85 435.95 49.35V64.5C435.95 66 436.45 67.3 437.45 68.4C438.55 69.4 439.8 69.9 441.2 69.9H466.85C469.85 69.9 472.4 70.95 474.5 73.05C476.6 75.15 477.65 77.7 477.65 80.7V124.2C477.65 127.2 476.6 129.75 474.5 131.85C472.4 133.95 469.85 135 466.85 135H432.8ZM491.217 39.9V25.8L505.317 22.5V36.6L491.217 39.9ZM491.517 135V63.3L505.617 60V135H491.517ZM515.628 135V60H575.178C578.178 60 580.728 61.1 582.828 63.3C584.928 65.4 585.978 67.95 585.978 70.95V135H572.028V79.5C572.028 78 571.478 76.75 570.378 75.75C569.278 74.65 567.978 74.1 566.478 74.1H557.928V135H543.828V79.5C543.828 78 543.278 76.75 542.178 75.75C541.078 74.65 539.778 74.1 538.278 74.1H529.728V135H515.628ZM606.199 135C603.099 135 600.499 133.95 598.399 131.85C596.299 129.65 595.249 127.05 595.249 124.05V70.95C595.249 67.95 596.299 65.4 598.399 63.3C600.499 61.1 603.099 60 606.199 60H626.599C629.599 60 632.149 61.1 634.249 63.3C636.349 65.4 637.399 67.95 637.399 70.95V124.05C637.399 127.05 636.349 129.65 634.249 131.85C632.149 133.95 629.599 135 626.599 135H606.199ZM614.749 120.9H617.899C619.399 120.9 620.699 120.4 621.799 119.4C622.899 118.3 623.449 117 623.449 115.5V79.5C623.449 78 622.899 76.75 621.799 75.75C620.699 74.65 619.399 74.1 617.899 74.1H614.749C613.249 74.1 611.949 74.65 610.849 75.75C609.849 76.75 609.349 78 609.349 79.5V115.5C609.349 117 609.849 118.3 610.849 119.4C611.949 120.4 613.249 120.9 614.749 120.9ZM647.125 135V60H678.475C681.375 60 683.925 61.05 686.125 63.15C688.325 65.25 689.425 67.8 689.425 70.8V135H675.325V79.5C675.325 77.9 674.775 76.6 673.675 75.6C672.575 74.6 671.325 74.1 669.925 74.1H661.225V135H647.125ZM735.22 135C732.22 135 729.67 133.95 727.57 131.85C725.47 129.65 724.42 127.05 724.42 124.05V111.6H738.37V115.5C738.37 117 738.92 118.3 740.02 119.4C741.12 120.4 742.42 120.9 743.92 120.9H747.07C748.57 120.9 749.82 120.4 750.82 119.4C751.92 118.3 752.47 117 752.47 115.5V109.95C752.47 108.45 751.92 107.2 750.82 106.2C749.82 105.1 748.57 104.55 747.07 104.55H735.22C732.22 104.55 729.67 103.5 727.57 101.4C725.47 99.2 724.42 96.6 724.42 93.6V70.95C724.42 67.95 725.47 65.4 727.57 63.3C729.67 61.1 732.22 60 735.22 60H755.77C758.77 60 761.32 61.1 763.42 63.3C765.52 65.4 766.57 67.95 766.57 70.95V83.4H752.47V79.5C752.47 78 751.92 76.75 750.82 75.75C749.82 74.65 748.57 74.1 747.07 74.1H743.92C742.42 74.1 741.12 74.65 740.02 75.75C738.92 76.75 738.37 78 738.37 79.5V85.05C738.37 86.55 738.92 87.85 740.02 88.95C741.12 89.95 742.42 90.45 743.92 90.45H755.77C758.77 90.45 761.32 91.55 763.42 93.75C765.52 95.85 766.57 98.4 766.57 101.4V124.65C766.47 127.45 765.37 129.9 763.27 132C761.17 134 758.67 135 755.77 135H735.22ZM785.028 135C782.028 135 779.428 133.95 777.228 131.85C775.128 129.75 774.078 127.15 774.078 124.05V101.4C774.078 98.4 775.128 95.85 777.228 93.75C779.428 91.55 782.028 90.45 785.028 90.45H796.728C798.328 90.45 799.628 89.95 800.628 88.95C801.728 87.85 802.278 86.55 802.278 85.05V79.5C802.278 78 801.728 76.75 800.628 75.75C799.628 74.65 798.328 74.1 796.728 74.1H780.528L783.678 60H805.428C808.428 60 810.978 61.1 813.078 63.3C815.278 65.4 816.378 67.95 816.378 70.95V135H785.028ZM793.578 120.9H802.278V104.55H793.578C792.078 104.55 790.778 105.1 789.678 106.2C788.678 107.2 788.178 108.45 788.178 109.95V115.5C788.178 117 788.678 118.3 789.678 119.4C790.778 120.4 792.078 120.9 793.578 120.9ZM837.909 172.5C834.809 172.5 832.209 171.45 830.109 169.35C828.009 167.25 826.959 164.65 826.959 161.55V145.2L841.059 148.5V153C841.059 154.4 841.609 155.65 842.709 156.75C843.809 157.85 845.059 158.4 846.459 158.4H849.759C851.159 158.4 852.409 157.85 853.509 156.75C854.609 155.65 855.159 154.4 855.159 153V135H837.909C834.809 135 832.209 133.95 830.109 131.85C828.009 129.75 826.959 127.15 826.959 124.05V60H841.059V115.5C841.059 116.9 841.609 118.15 842.709 119.25C843.809 120.35 845.059 120.9 846.459 120.9H855.159V60H869.259V161.55C869.259 164.65 868.209 167.25 866.109 169.35C864.009 171.45 861.459 172.5 858.459 172.5H837.909Z" fill="white"/>
<defs>
<clipPath id="clip0_203_5">
<rect width="272" height="276" fill="white" transform="translate(272 276) rotate(-180)"/>
</clipPath>
</defs>
</svg>